<?xml version="1.0" encoding="UTF-8"?>
<svg id="Layer_2" data-name="Layer 2" xmlns="http://www.w3.org/2000/svg" viewBox="0 0 286.8 286.8">
  <defs>
    <style>
      .cls-1 {
        fill: #000;
      }

      .cls-1, .cls-2 {
        stroke-width: 0px;
      }

      .cls-2 {
        fill: none;
      }
    </style>
  </defs>
  <g id="Layer_13" data-name="Layer 13">
    <rect class="cls-2" width="286.8" height="286.8"/>
  </g>
  <g id="Bard">
    <path class="cls-1" d="M99.25,226.38c0-2.36,0-4.29,0-6.22,0-51.51,0-103.02,0-154.53,0-13.48,3.28-17.94,16-21.85C160.64,29.83,206.04,15.87,251.43,1.92c13.42-4.13,23.29,2.83,23.31,16.94.1,63.09.04,126.19.05,189.28,0,12.47-7.27,20.16-17.55,25.09-24.74,11.84-49.78,11.51-74.58.05-12.45-5.75-18.51-15.81-17.18-27.39.99-8.64,6.22-14.7,13.35-18.61,21.27-11.67,43.7-14.37,67.06-7.04,2.03.64,4.01,1.43,6.54,2.35v-91.38c-2.58.67-5.18,1.24-7.72,2.02-39.71,12.24-79.39,24.56-119.15,36.66-3.73,1.13-4.5,2.93-4.49,6.46.11,37.34.07,74.68.07,112.01,0,15.13-6.02,24.08-19.98,30-23.24,9.85-46.46,9.89-69.67-.02-2.51-1.07-4.95-2.4-7.2-3.92-17.47-11.79-17.4-32.74.9-43.19,21.22-12.12,43.98-14.44,67.47-6.91,1.59.51,3.15,1.13,4.73,1.68.28.1.59.13,1.86.39Z"/>
  </g>
</svg>