<?xml version="1.0" encoding="UTF-8"?>
<svg id="Layer_2" data-name="Layer 2" xmlns="http://www.w3.org/2000/svg" viewBox="0 0 286.8 286.8">
  <defs>
    <style>
      .cls-1 {
        fill: #000;
      }

      .cls-1, .cls-2 {
        stroke-width: 0px;
      }

      .cls-2 {
        fill: none;
      }
    </style>
  </defs>
  <g id="Layer_13" data-name="Layer 13">
    <rect class="cls-2" width="286.8" height="286.8"/>
  </g>
  <g id="Sorcerer">
    <path class="cls-1" d="M146.25,138.77c-23.04,5.72-45.14,11.23-67.25,16.7-8.94,2.21-13.15-2.04-10.97-10.98,10.81-44.42,21.6-88.84,32.39-133.26,2.13-8.76,3.78-10.08,12.8-10.08,16.43,0,32.86-.02,49.29,0,9.22.02,11.72,3.73,8.49,12.45-8.92,24.06-17.83,48.13-26.73,72.2-.47,1.26-.81,2.57-1.48,4.69,5.79-1.36,11.02-2.53,16.22-3.8,16.52-4.07,33.03-8.14,49.53-12.29,3.78-.95,7.23-1.05,9.95,2.27,2.6,3.16,1.28,6.23-.18,9.35-30.1,64.4-60.19,128.81-90.28,193.22-.45.96-.89,1.95-1.48,2.82-2.3,3.4-6.2,4.72-9.52,3.07-3.66-1.82-5.34-4.52-4.26-8.91,9.79-39.82,19.46-79.67,29.16-119.51,1.39-5.71,2.74-11.43,4.3-17.96Z"/>
  </g>
</svg>