<?xml version="1.0" encoding="UTF-8"?><svg id="Layer_2" xmlns="http://www.w3.org/2000/svg" viewBox="0 0 497.78 885.41"><defs><style>.cls-1{fill:#000;}.cls-1,.cls-2,.cls-3,.cls-4,.cls-5,.cls-6,.cls-7,.cls-8,.cls-9,.cls-10,.cls-11,.cls-12,.cls-13,.cls-14,.cls-15{stroke-width:0px;}.cls-2{fill:#282424;}.cls-3{fill:#fcfcfc;}.cls-4{fill:#052559;}.cls-16{opacity:.5;}.cls-5{fill:#53806a;}.cls-6{fill:#e4e5e5;}.cls-7{fill:#fdfdfd;}.cls-17{opacity:.7;}.cls-8{fill:#171616;}.cls-9{fill:#babbbb;}.cls-10{fill:#fff;}.cls-11{fill:#181717;}.cls-12{fill:#090909;}.cls-13{fill:#d1d2d2;}.cls-14{fill:#0a0a0a;}.cls-15{fill:#fefefe;}</style></defs><g id="Layer_2-2"><polygon class="cls-5" points="192.66 149.72 157.77 147.27 98.7 148.49 60.58 164.12 53.77 176.2 59.56 190.16 73.51 201.22 152.83 229.14 247.81 244.29 340.24 248.37 411.56 239.69 438.96 230.5 434.19 219.09 399.3 202.41 315.21 179.78 301.6 175.69 325.09 131.44 369.17 83.27 410.02 48.54 436.57 32.16 477.09 29.82 493.94 23.69 482.36 15.01 452.92 7.52 416.15 2.75 369.34 10.41 312.83 32.54 268.41 64.54 233.68 98.41 193.34 149.72 192.66 149.72"/></g><g id="Layer_1-2"><path class="cls-8" d="M187.09,151.79c-.15-.28-.28-.81-.44-.82-5.58-.2-11.16-.39-16.73-.51-12.94-.27-25.88-.56-38.82-.73-3.51-.05-7.04.08-10.53.45-9.21.99-18.43,2-27.56,3.66-5.87,1.06-11.34,3.32-16.89,5.34-2.85,1.03-5.61,2.32-8.36,3.6-2.48,1.16-4.62,2.84-6.57,4.76-3.33,3.27-4.44,7.28-3.99,11.82.2,1.97.95,3.74,2.18,5.24,1.42,1.72,2.87,3.46,4.53,4.93,2.26,1.99,4.86,3.54,6.48,6.27.91,1.51,2.8,2.1,4.41,2.78,5.45,2.3,10.87,4.66,16.41,6.72,21.72,8.09,43.7,15.36,65.92,21.96,7.84,2.33,15.88,3.66,23.95,4.77,12.2,1.69,24.28,3.98,36.37,6.28,11.66,2.22,23.43,3.1,35.25,3.68,10.53.51,21.07.9,31.56,2.13,7.79.92,15.64.8,23.47.95,11.02.21,22.05.37,33.08.42,13.44.06,26.8-.99,40.13-2.83,15.71-2.17,31.14-5.56,46.44-9.63,1.67-.44,3.48-.58,4.85-1.89.88-.84,2.12-.55,3.19-.83.94-.24,1.27-.95,1.11-1.81-.42-2.25-1.61-4.16-2.98-5.94-2.08-2.7-4.61-4.88-7.75-6.27-7.01-3.1-13.93-6.43-21.21-8.86-14.4-4.81-28.94-9.11-43.73-12.59-8.39-1.98-16.66-4.49-24.98-6.8-6-1.67-11.95-3.53-18.08-4.74-1.39-.28-2.77-.76-4.05-1.37-.92-.44-1.29-1.44-1.02-2.46.27-.99,1.01-1.73,2.03-1.77,1.1-.04,2.24.1,3.31.37,5.12,1.26,10.23,2.54,15.32,3.92,9.41,2.54,18.73,5.45,28.21,7.68,13.08,3.08,25.9,7.02,38.74,10.91,9.51,2.88,18.54,6.96,27.57,11.02,5.76,2.59,9.91,6.92,12.57,12.65.54,1.15,1,2.37,1.28,3.6.88,3.85-.98,7.04-4.76,8.09-4,1.1-8.05,2.03-12.07,3.09-19.5,5.15-39.29,8.72-59.37,10.68-.63.06-1.27.13-1.9.24-.43.08-.86,1.25-.57,1.61,1.4,1.74,2.82,3.47,4.24,5.2,2.95,3.59,5.81,7.23,7.16,11.8.04.15.13.29.22.42,4,6.16,4.5,13.17,5.12,20.21,1.1,12.49-.92,24.54-4.73,36.37-.34,1.06-.74,2.11-1.23,3.11-2.67,5.53-4.22,11.34-4.75,17.46-.36,4.13-.88,8.25-1.34,12.38-.53,4.79-.18,9.58-.09,14.37.22,11.66.52,23.31.8,34.97.21,8.64.98,17.22,2.29,25.76.28,1.84.64,3.42,2.66,4.1,1.34.45,1.77,1.72,2.35,2.88,4.75,9.6,10.49,18.65,15.73,27.98,3.3,5.87,7.39,11.2,12.04,16.07,4.3,4.5,8.73,8.87,13.08,13.32,1.07,1.09,2.13,1.73,3.8,1.3,7.46-1.9,15.1-2.55,22.75-3.06.32-.02.64-.02.96-.05.64-.06,1.32-.19,1.4-.96.04-.42-.11-.95-.37-1.28-1.57-2.01-3.26-3.93-4.8-5.97-1.35-1.78-2.65-3.6-3.82-5.5-7.39-11.97-14.73-23.96-22.08-35.95-3.68-5.99-7.32-12-11.04-17.97-1.52-2.44-3.2-4.77-4.82-7.15-.45-.66-.97-1.28-1.37-1.97-.65-1.1-.49-2.35.31-3.07.79-.71,2.11-.66,3.02.27,1.45,1.48,2.87,3,4.21,4.59,3.2,3.77,6.36,7.57,9.49,11.39,1.11,1.36,2.15,2.78,3.14,4.23,3.08,4.47,6.12,8.97,9.2,13.45.45.66.94,1.3,1.49,1.87,4.91,5.1,8.78,10.96,12.5,16.93,4.48,7.18,8.73,14.51,13.13,21.74,1.4,2.31,3.67,3.99,4.76,6.55.34.79,1.36.73,2.13.88,3.67.69,7,2.18,10.15,4.12,4.96,3.06,8.11,7.68,10.55,12.75,1.47,3.07,1.37,6.5.72,9.89-1.45,7.57-5.17,14.04-9.68,20.12-3.14,4.23-6.39,8.39-10.77,11.5-1.03.73-1.9,1.7-2.84,2.57-.66.61-.73,1.28-.39,2.13,1.71,4.3,3.5,8.58,5.01,12.96,2.07,6.04,4.22,12.99,4.97,19.19.1,2.27,1.57,5.6,1.72,8.37.97,3.66,1.2,4.85,2.02,9.71.82,3.72,1.28,18.07,1.27,21.59,0,2-.33,12.92-.38,13.4-.89,8.58-2.13,16.26-2.98,24.84-.16,1.59-.43,8.71-.45,10.31-.15,10.23.37,17.37-.37,27.56-.83,11.35-.2,21.2-.53,32.54-.09,3.03-.29,6.07-.56,9.09-.32,3.51-1.01,6.96-2.44,10.22-2.02,4.61-3.04,9.38-2.76,14.45.19,3.51.1,7.04.02,10.55-.07,3.04-2.01,5.1-4.97,5.42-2.13.23-4.1-.17-5.91-1.44-1.59-1.11-2.93-2.45-4.28-3.82-1.52-1.54-2.36-1.62-4.26-.69-.29.14-.56.31-.82.49-5.33,3.75-11.58,5.26-17.59,7.39-6.74,2.38-13.2,1.79-19.51-1.32-2.71-1.34-5.51-2.5-8.06-4.21-2.96-1.98-6.29-3.13-9.89-3.28-4.15-.17-8.31-.21-12.46-.41-2.13-.1-3.71.63-4.85,2.43-3.5,5.54-7.01,11.07-10.52,16.6-.17.27-.33.56-.42.86-1.57,5.2-3.66,10.3-4.56,15.61-1.64,9.75-2.69,19.58-2.54,29.56.1,6.33-.83,12.72-4.07,18.46-3.36,5.96-9.66,7.54-15.54,4.04-3.9-2.32-6.4-5.76-8.33-9.66-5.7-11.52-10.01-23.49-11.53-36.36-.49-4.12-1.27-8.21-1.93-12.31-.1-.63-.22-1.26-.42-1.87-.54-1.64-1.39-2.28-3.15-2.37-.8-.04-1.6-.01-2.4-.01-10.55.01-21.1.06-31.65.02-8.51-.03-16.88,1.09-25.19,2.8-2.2.45-4.39.8-6.65.81-1.44,0-2.88.1-4.31.24-1.74.17-2.93,1.04-3.49,2.79-1.46,4.55-3.15,8.99-3.73,13.84-.57,4.73-1.88,9.39-3.01,14.04-.49,2.03-.95,4.06-.99,6.14-.16,8.69-2.99,16.59-6.96,24.17-1.5,2.86-3.41,5.4-5.59,7.76-4.46,4.82-9.76,4.35-14.23,1.23-2.14-1.49-3.77-3.37-4.85-5.8-2.91-6.5-4.72-13.2-4.63-20.39.13-10.87.03-21.74.91-32.6.37-4.61.16-9.27-.45-13.88-.18-1.34-.58-2.37-1.76-3.2-2.22-1.56-4.41-3-7.03-3.98-5.23-1.95-10.42-4.04-15.63-6.04-10.9-4.2-20.92-10.24-31.61-14.85-3.25-1.4-6.02-3.55-8.67-5.91-4.22-3.75-7.94-7.85-10.54-12.9-.44-.85-1.01-1.63-1.59-2.4-6.68-9-10.5-19.32-13.84-29.86-.87-2.75-1.45-5.59-1.43-8.49.08-14.55-.38-29.11.43-43.65.31-5.42.84-10.84,1.48-16.23.4-3.35.49-6.69.5-10.05.03-7.06.82-13.94,2.98-20.78,2.06-6.53,3.4-13.3,5.01-19.98,1.45-6.02,3.1-12.08,6.3-17.52.24-.41.47-.84.69-1.26,3.2-6.24,3-5.83-3-7.64-4.28-1.29-8.49-2.83-12.65-4.45-9.23-3.59-18.43-7.27-27.62-10.96-7.52-3.02-14.03-7.47-19.49-13.55-3.52-3.92-7.35-7.55-10.5-11.82-1.21-1.64-3.04-2.76-4.35-4.4-1.22-1.52-1.94-3.3-3-4.89-.24-.36-.45-1.03-.28-1.34.94-1.71-.04-3.08-.66-4.51-3.63-8.36-2.75-16.56,1.05-24.57,1.63-3.44,4.52-5.73,7.88-7.44,5.82-2.94,12.09-3.94,18.52-4.37,9.38-.63,18.47.89,27.38,3.66,7.94,2.47,15.61,5.69,23.28,8.86,2.05.85,4.04,1.94,5.9,3.17,6.26,4.15,12.52,8.29,18.61,12.67,3.76,2.69,7.21,5.82,10.82,8.71,1.02.82,1.72.74,2.37-.29,5.15-8.07,10.67-15.93,13.57-25.23.96-3.07,1.59-6.19,2.27-9.31.25-1.14-.35-1.66-1.64-1.57-3.38.24-6.63.71-9.15,3.4-.73.78-1.82,1.3-2.84,1.71-1.37.54-3.1-.53-3.2-1.99-.12-1.75-.11-3.52,0-5.27.03-.57.44-1.19.82-1.67,4.23-5.41,6.38-11.71,7.93-18.28.21-.89-.08-1.53-.54-2.2-1.62-2.38-3.13-4.79-3.83-7.66-.24-.98-1.14-1.8-1.75-2.71.41-.46.76-.78,1.03-1.16,3.64-5,8.81-5.18,14.22-4.48,1.57.2,3.12.61,4.86.96.94-3.14,1.93-6.15,3.28-9.03.31-.66.27-1.58.12-2.33-.3-1.56-.68-3.13-1.21-4.63-3.13-8.75-6.89-17.2-12.12-24.94-.89-1.32-1.63-2.75-2.52-4.08-3.02-4.51-5.86-9.13-10.02-12.77-3.4-2.98-5.24-6.76-5.24-11.39,0-1.96-.14-2-2.25-2.36-5.83-1-11.66-1.98-17.49-2.96-9.78-1.64-19.45-3.75-29.02-6.38-9.84-2.71-19.73-5.27-29.57-8-4.62-1.28-9.01-3.19-13.24-5.49-5.19-2.82-10.48-5.46-15.74-8.13-3.42-1.73-6.76-3.54-9.82-5.93-4.15-3.24-8.53-6.2-12.91-9.12-4.55-3.03-7.48-7.21-9.87-12.06-2.76-5.62-3.67-11.49-3.75-17.62-.2-15.33-.1-15.32,3.72-29.79,1.7-6.44,4.73-12.22,8.03-17.86,3.79-6.48,8.25-12.51,13.39-18.05,3.83-4.13,7.97-7.91,12.57-11.06,9.65-6.62,19.79-12.26,31.41-14.81,6.54-1.44,12.96-3.41,19.62-4.29.24-.03.56-.34.61-.57.06-.25-.07-.71-.27-.82-.69-.38-1.44-.66-2.17-.97-4.86-2.03-9.74-4.04-14.59-6.1-3.44-1.46-6.34-3.66-8.7-6.58-.69-.86-1.58-1.56-2.36-2.35-1.57-1.59-3.17-3.15-4.7-4.78-7.12-7.56-5.93-19.4,1.65-26.19,2.88-2.58,6.06-4.69,9.61-6.24,11.33-4.94,22.99-8.73,35.37-9.99,6.68-.68,13.34-1.51,20.02-2.16,2.69-.26,5.43-.42,8.13-.27,13.25.73,26.52.36,39.78.75,3.99.12,7.98.45,11.97.58,2.42.08,4.01.9,4.09,3.59,0,.17.45.33.69.5l.08-.07c-.82-.42-1.31-.11-1.64.68-.29.71.14,1.02.65,1.33,0,0,.1-.12.1-.12ZM194.94,835.84c-.06,0-.12,0-.18,0,0,6.71.12,13.43-.03,20.14-.15,6.54,1.46,12.64,3.92,18.6.89,2.17,2.39,3.77,4.45,4.84,2.29,1.19,4.3.97,6.16-.8,1.86-1.77,3.4-3.81,4.64-6.07,4.05-7.37,6.82-15.11,6.94-23.65.03-1.9.48-3.8.88-5.67,1-4.68,2.41-9.3,3.05-14.03.71-5.29,2.41-10.23,4.03-15.24,1.11-3.44,3.45-5.27,6.87-5.87,1.25-.22,2.54-.29,3.82-.29,3.06,0,6.01-.62,9.01-1.12,6.61-1.1,13.19-2.45,19.95-2.44,11.19.02,22.37-.07,33.56-.12,2.24,0,4.48.05,6.71,0,2.32-.05,3.94,1.05,5.17,2.91.89,1.35,1.6,2.76,1.87,4.37.54,3.31,1.12,6.62,1.62,9.94.96,6.32,1.92,12.6,3.71,18.79,2.06,7.11,5.05,13.77,8.23,20.38.48,1,1.16,1.91,1.74,2.87,1.2,1.99,3.04,3.28,5.03,4.31,2.79,1.45,5.76.49,7.43-2.13,1.5-2.36,2.34-4.89,2.37-7.69.06-7.17,2.01-14.21,1.43-21.43-.04-.47.1-.95.16-1.43.64-4.91,1.24-9.82,1.94-14.72.27-1.89.74-3.76,1.21-5.62,2.11-8.26,5.18-16.1,10.34-23,.57-.76.99-1.64,1.53-2.44,1.97-2.91,3.61-6.14,6.01-8.64,6.29-6.59,12.98-12.78,20.45-18.05,6.53-4.6,13.16-9.04,19.47-13.96,5.06-3.94,9.78-8.21,13.5-13.49.92-1.3,1.95-2.53,2.92-3.8,4.4-5.69,8.54-11.57,12.32-17.69.81-1.31,1.09-2.54.72-4.07-.75-3.1-1.41-6.23-1.96-9.38-1.28-7.24-2.56-14.46-4.14-21.65-3.03-13.76-6.83-27.31-11.49-40.57-5.51-15.67-11.53-31.17-18.51-46.26-.66-1.42-.83-3.48-2.46-3.9-1.24-.32-2.76.47-4.15.79-1.09.25-2.17.53-3.26.78-3.34.77-6.4,2-8.43,5-.26.39-.65.71-1.05.98-.88.59-1.78.64-2.65-.05-.88-.7-1.12-1.68-.58-2.55.93-1.51,1.65-3.03,1.83-4.83.08-.83.84-1.33,1.67-1.52.78-.18,1.56-.39,2.35-.46,7.35-.67,14.25-3.3,21.29-5.17,6.6-1.75,13.1-4.07,19.46-6.68,2.82-1.16,5.59-2.36,8.16-3.98,4.74-2.97,9.47-5.95,14.18-8.96,1.32-.85,2.6-1.65,3.46-3.18.83-1.47,2.16-2.78,4.18-2.83.42-.01.92-.3,1.24-.61,2.61-2.57,5.75-4.56,8.03-7.52,3.12-4.06,6.19-8.13,8.67-12.62,1.88-3.4,3.12-7,3.79-10.8.39-2.23.6-4.61-.42-6.61-2.24-4.43-4.87-8.63-9.5-11.1-6.95-3.71-14.49-4.78-22.2-5.04-6.42-.21-12.71,1.27-19.07,1.76-2.52.19-5.12.64-7.47,1.55-2.96,1.13-5.78,2.69-8.5,4.34-11.46,6.98-23.02,13.81-34.04,21.48-3.48,2.42-7.37,3.74-11.06,5.58-.6.3-1.47.14-1.49-.62-.05-1.86-1.29-2.86-2.48-3.91-2.16-1.9-4.26-3.89-6.57-5.58-10.58-7.73-21.2-15.4-32.58-21.95-6.09-3.51-12.17-7.04-18.17-10.69-6.86-4.17-14.09-7.49-21.69-10.07-4.54-1.54-9.07-3.1-13.52-4.87-3.43-1.37-6.91-2.5-10.52-3.21-6.27-1.22-12.55-2.38-18.84-3.51-1.88-.34-3.8-.52-5.7-.68-9.27-.81-18.52-.11-27.78.38-6.54.35-12.99,1.7-19.57,1.73-1.95.01-4.07-.77-5.88.69.2,2.01,1.63,3.4,2.59,5.01,2.67,4.48,2.95,9.36,2.46,14.37-.04.46-.29.92-.52,1.33-.65,1.15-2.23,1.71-3.31.97-2.36-1.61-5.08-2.73-6.91-5.07-.59-.75-1.34-1.36-2-2.05-.26-.27-.56-.35-.84-.07-.2.19-.4.46-.44.73-.08.47-.04.95-.07,1.43-.71,10.38-3.72,20.07-8.81,29.1-2.35,4.17-4.97,8.19-7.46,12.29-.57.94-1.51,1.8-1.42,2.97.19,2.44-1.45,3.95-2.96,5.17-1.55,1.26-2.68,2.7-3.67,4.32-3.83,6.27-7.51,12.63-10.94,19.13-2.76,5.23-5.16,10.65-7.94,15.85-3.7,6.91-6.65,14.16-10.32,21.07-2.25,4.24-3.5,8.96-4.52,13.6-1.51,6.87-3.06,13.74-5.1,20.44-1.85,6.07-2.64,12.14-2.72,18.4-.04,3.67-.17,7.33-.48,11.01-.59,7-1.76,13.95-1.74,21.01.04,11.03.03,22.07-.22,33.09-.14,6.35.84,12.4,3.2,18.27.6,1.48,1.12,2.99,1.67,4.5,2.07,5.74,4.68,11.19,8.25,16.16,1.02,1.43,2.08,2.86,2.89,4.41,2.64,5.06,6.47,9.05,10.75,12.71,2.09,1.79,4.32,3.26,6.77,4.47,7.72,3.84,15.72,7.1,23.22,11.38.69.39,1.42.74,2.16,1.02,6.25,2.42,12.5,4.83,18.76,7.22,3.42,1.3,6.97,2.33,9.79,4.88.44.4,1.13.6,1.73.72,1.71.35,2.27,1.5,2.48,3.08.82,6.19,1.22,12.41.88,18.65-.2,3.67-.46,7.34-.7,11.01ZM178.66,452.95c1.02.76,1.97.29,2.89.18,4.12-.48,8.23-1.2,12.37-1.45,12.01-.71,23.73-3.31,35.48-5.57,7.24-1.39,14.46-2.58,21.82-2.94,4.47-.22,8.95-.3,13.39-.79,7.32-.82,14.66-1.12,22.01-1.15,21.42-.08,42.83-.08,64.25-.2,4.36-.02,8.62.45,12.75,1.8,2.01.66,4.05.86,6.14.88.72,0,1.35-.34,1.16-1.09-.77-3.05-.9-6.41-3.99-8.37-1-.63-1.5-1.6-1.65-2.79-.46-3.81-1.17-7.6-1.38-11.42-.5-8.94-.85-17.88-1.09-26.83-.21-7.82-.19-15.65-.28-23.48-.06-4.95-.26-9.9.55-14.83.41-2.51.51-5.08.71-7.63.02-.24-.19-.63-.4-.73-.23-.11-.7-.08-.86.09-1.77,1.84-3.49,3.74-5.27,5.57-.77.8-1.59,1.6-2.52,2.18-.87.54-1.88.35-2.63-.41-.72-.73-1.12-1.66-.58-2.6.55-.95,1.22-1.9,2.02-2.64,5.09-4.71,8.3-10.92,12.93-16,.52-.57.76-1.39,1.08-2.12,2.89-6.45,4.66-13.25,6.12-20.13.6-2.8.98-5.68,1.15-8.54.41-7.04-.05-14.06-1.03-21.04-.22-1.57-.55-3.19-1.22-4.62-2.82-6.08-5.84-12.07-10-17.38-.88-1.12-1.86-2.25-3.03-3.02-1.39-.92-2.42-2.06-3.17-3.49-.86-1.64-2.21-2-3.97-1.96-5.59.11-11.19.13-16.78.09-8.95-.06-17.9-.16-26.84-.3-10.07-.16-20.13-.31-30.15-1.47-3.81-.44-7.63-.73-11.46-.95-8.61-.49-17.24-.84-25.85-1.35-8.3-.49-16.53-1.65-24.71-3.13-12.42-2.25-24.79-4.74-37.32-6.36-11.28-1.46-22.31-4.06-33.11-7.64-10.62-3.52-21.29-6.86-31.9-10.4-3.64-1.21-7.15-2.74-11.09-1.39-.43.15-.95.01-1.43-.01-2.87-.15-5.74-.37-8.61-.44-2.71-.07-5.44-.43-8.12.2-5.59,1.33-11.18,2.66-16.73,4.17-6.48,1.77-12.87,3.8-18.43,7.8-1.03.74-2.23,1.24-3.34,1.88-6.27,3.61-11.9,8.01-16.82,13.34-4.46,4.83-8.57,9.87-11.98,15.53-3.97,6.59-7.88,13.16-9.48,20.82-.52,2.5-1.2,4.97-1.87,7.44-1.56,5.77-2.01,11.64-1.51,17.59.21,2.55.38,5.11.76,7.63,1.25,8.4,4.75,15.44,12.11,20.25,4.27,2.79,8.41,5.81,12.49,8.88,2.06,1.55,4.19,2.89,6.51,3.99,6.78,3.23,13.56,6.47,19.9,10.5,2.87,1.82,5.82,3.33,9.11,4.14,2.75.68,45.47,11.79,63.34,14.68,15.79,2.55,31.6,4.81,47.62,5.16,10.39.23,20.78.02,31.16-.42,5.11-.22,10.21-.52,15.32-.74,1.1-.05,2.25-.05,3.31.22.97.25,1.54,1.11,1.56,2.18.02.87-.47,1.52-1.16,1.97-1.13.73-2.43.68-3.71.73-7.34.33-14.68.79-22.03.98-16.46.43-32.92.62-49.3-1.6-.63-.09-1.27-.1-1.91-.08-.78.03-1.12.59-1.11,1.27.05,3.25,1.2,5.99,4.15,7.57,2.79,1.49,4.74,3.71,6.4,6.31,2.33,3.63,4.62,7.29,7.1,10.81,3.33,4.73,5.96,9.86,8.34,15.08,2.19,4.78,4.18,9.68,5.57,14.79.78,2.88.81,5.62-.4,8.42-.61,1.4-1.55,2.77-1.38,4.37ZM412.72,501.72c-.42-.61-.68-1.19-1.12-1.59-3.62-3.37-7.03-6.93-10.43-10.53-6.18-6.54-11.52-13.62-15.78-21.57-2.64-4.92-5.64-9.65-8.5-14.44-.4-.67-.86-1.49-1.5-1.79-2.3-1.07-4.61-2.36-7.05-2.8-2.99-.54-5.91-1.29-8.86-1.99-2.34-.55-4.69-.87-7.11-.87-18.53.05-37.06.19-55.58,0-16.64-.17-33.16,1.65-49.75,2.39-.8.04-1.59.18-2.38.26-9.4.91-18.57,3.2-27.82,4.93-7.87,1.47-15.78,2.38-23.72,3.16-3.97.39-7.95.82-11.87,1.53-3.79.69-4.73.16-3.29,4.67.29.89.3,1.89.34,2.84.05,1.27.83,1.6,1.89,1.58,3.83-.09,7.7.11,11.48-.36,9.21-1.15,18.44-1.73,27.7-2.1,3.99-.16,7.97-.13,11.97.06,8.02.37,15.78,2.36,23.64,3.71,4.71.81,9.4,1.79,13.9,3.53,4.31,1.68,8.65,3.27,13.02,4.79,8.01,2.79,15.85,5.91,23.11,10.38,4.49,2.76,8.96,5.56,13.57,8.11,9.79,5.43,19.2,11.42,28.34,17.89,6.78,4.8,13.6,9.53,19.6,15.34,1.4,1.36,1.64,1.3,3.26.15,2.6-1.85,5.12-3.83,7.81-5.54,7.82-4.96,15.69-9.83,23.57-14.71,3.79-2.35,7.62-4.64,11.58-7.05ZM458.8,777.8c.91-4.19.55-11.98,2.17-15.61,2.19-4.93,3.55-11.05,3.66-16.36.16-7.51-.11-12.88,0-20.39.02-1.6.19-9.85.37-11.43.6-10.16.14-16.94.08-27.48-.06-11.04,1.83-19.63,3.43-30.55.49-3.33,1.26-14.19,1.27-17.55.03-8.95-.66-12.86-.6-21.81.03-4.18-1.28-10.13-2.24-14.19-1.03-4.34-2.55-10.36-3.59-14.71-1.99-8.37-3.74-13.75-7.02-21.73-.47-1.15-.68-2.36-2.09-3.14-.74.43-2.67,1.64-3.47,2.14-4.87,3.05-9.74,6.1-14.6,9.17-2.57,1.63-5.32,2.87-8.14,4.02-5.92,2.4-12,4.3-18.03,6.39-1.47.51-3.52.45-4.24,1.85-.87,1.7.73,3.29,1.41,4.84,8.06,18.27,15.49,36.79,21.45,55.87,4.62,14.8,6.72,24.48,9.26,39.78.52,3.15,1.57,11.59,2.24,14.71,2.28,10.61,4.1,18.07,5.6,28.83.29,2.05,1.16,8.32,1.72,10.31,2.94,10.46,5.76,19.92,8.29,30.47.1.44,2.85,6.16,3.06,6.57ZM36.51,518.64c.46,3.04.95,6.15,2.05,9.21,4.44,12.33,13.33,21.29,22.58,29.91,3.99,3.72,8.83,6.28,13.96,8.24,3.58,1.36,7.13,2.82,10.68,4.27,10.66,4.33,21.35,8.58,32.39,11.86,1.92.57,1.94.53,3.01-1.18,2.82-4.48,4.58-9.5,7.08-14.14,3.87-7.17,7.81-14.3,11.8-21.41,1.49-2.64,3.22-5.15,4.8-7.74.86-1.4.79-1.73-.41-2.86-.58-.55-1.21-1.05-1.82-1.57-8.77-7.48-18.21-14.04-27.97-20.14-1.89-1.18-3.89-2.25-5.95-3.07-6.08-2.44-12.18-4.83-18.34-7.05-11.45-4.13-23.2-5.78-35.34-3.84-3.82.61-7.44,1.82-10.84,3.66-1.71.92-3.27,2.16-4.2,3.84-2.04,3.67-3.12,7.67-3.5,12ZM454.17,783.34c-.18-.91-.32-1.86-.56-2.79-1.81-7.12-3.67-14.22-5.46-21.35-1.17-4.65-2.02-9.39-3.42-13.96-1.37-4.46-2.18-8.98-2.8-13.58-.47-3.48-1.22-6.92-1.83-10.38-.06-.36-.26-.58-.65-.53-.29.04-.63.12-.83.3-.34.32-.63.72-.89,1.12-4.23,6.6-9.23,12.64-13.96,18.88-1.06,1.39-2.23,2.72-3.48,3.94-6.44,6.25-13.67,11.49-21.04,16.59-5.51,3.81-11.29,7.32-15.97,12.19-1.56,1.62-4.14,2.32-4.59,4.96,2.1,1,4.35.49,6.53.55,5.9.17,11.33,1.6,16.25,4.97,2.64,1.81,5.66,2.91,8.61,4.15,4.2,1.77,8.38,1.78,12.63.4,6.22-2.03,12.59-3.69,18.02-7.58.64-.46,1.41-.76,2.17-.99,2.96-.9,5.68-.66,7.92,1.77.65.71,1.32,1.4,2.03,2.03.19.17.66.23.88.12.22-.11.29-.51.44-.82ZM156.28,489.31q8.12.15,11.49-5.89c1.5-2.67,1.21-5.21-.38-7.68-.88-1.37-2.15-1.67-3.75-1.4-1.54.26-2.25,1.15-2.42,2.53-.43,3.4-1.97,6.39-3.43,9.4-.41.85-.83,1.69-1.5,3.04ZM158.63,462.51c-.02,4.43,2.6,7.6,6.93,8.53,1.24.27,2.65.58,3.46-.68.63-.98-.75-1.52-1.03-2.37-.35-1.04-.86-2.04-1.41-2.99-1.31-2.26-3.21-3.87-5.62-4.88-.98-.41-1.91.11-2.12,1.18-.09.46-.15.93-.2,1.21ZM173.89,474.08c-.31,2.43-1.06,4.4-.64,6.09.38,1.51,2.02,2.71,3.14,4.02.82.96,1.66,1.9,2.55,2.78.29.29.79.37,1.24.56.17-4.66-1.18-7.64-6.29-13.46ZM173.92,464.87c.08-2.85-.63-5.16-3.42-6.29-.98-.39-2.02-1.89-2.86-1.05-1.11,1.11.77,1.67,1.24,2.52.37.69,1.02,1.22,1.42,1.89.73,1.22,1.36,2.5,2.08,3.73.13.22.45.43.71.46.67.1.64-.51.79-.92.05-.15.05-.31.05-.35Z"/><path class="cls-11" d="M187.91,149.98c.35.32.77.68,1.18.24,1.19-1.29,2.38-2.58,3.45-3.96,5.66-7.34,11.2-14.77,16.95-22.04,5.65-7.14,11.61-14.03,17.25-21.19,5.65-7.17,11.74-13.95,18.28-20.28,6.42-6.22,13.17-12.11,19.96-17.92,7.28-6.24,14.65-12.38,22.2-18.27,10.1-7.89,21.02-14.58,32.57-20.1,8.92-4.26,18.09-8.06,27.29-11.69,8.78-3.46,18.02-5.48,27.15-7.78,4.18-1.05,8.32-2.26,12.52-3.25,3.1-.73,6.25-1.33,9.4-1.81,12.2-1.88,24.43-2.48,36.77-1.35,6.56.6,12.9,1.99,19.31,3.36,7.67,1.64,15.17,3.82,22.73,5.85,7.88,2.11,14.54,6.43,20.71,11.61.6.5,1.11,1.15,1.53,1.82,1.1,1.75.71,3.45-1.14,4.47-3.41,1.9-7.13,2.68-11.02,2.64-1.15-.01-2.14-.97-2.27-2.09-.13-1.08.46-1.81,1.28-2.39,1.39-.98,3.05-.81,4.6-1.13.44-.09.92-.32.91-.88,0-.29-.1-.66-.3-.85-.82-.76-1.59-1.66-2.56-2.15-4.41-2.2-8.49-5.06-13.39-6.3-7.12-1.81-14.09-4.21-21.39-5.27-.63-.09-1.26-.23-1.87-.43-9.08-2.95-18.48-3.33-27.92-3.67-10.78-.39-21.48.67-31.87,3.1-12.73,2.99-25.52,5.94-37.96,10.07-5.92,1.96-11.61,4.5-17.27,7.09-1.6.73-3.18,1.5-4.81,2.15-16.34,6.47-31.02,15.8-44.62,26.78-9.82,7.92-19.41,16.12-28.83,24.53-10.42,9.3-19.71,19.57-28.43,30.41-7.31,9.08-14.77,18.06-21.98,27.22-4.34,5.52-8.36,11.3-12.8,16.76-5.99,7.36-13.02,13.61-20.42,19.49-.62.49-1.3.93-1.99,1.33-.96.56-1.87.28-2.65-.37-.87-.72-1.15-2.2-.45-3.04.81-.96,1.77-1.83,2.75-2.63,4.34-3.53,8.61-7.15,12.54-11.13,1.23-1.25,2.4-2.57,3.59-3.86.34-.37.42-.81.19-1.29,0,0-.1.12-.1.12,1.57-.43,1.84-.98.99-2.01l-.08.07Z"/><path class="cls-11" d="M466.94,32.79c-19.46.55-37.57,5.46-53.52,16.95-9.99,7.19-19.4,15.12-28.62,23.29-16.79,14.87-32.3,30.94-46.55,48.26-11.66,14.17-20.91,29.8-28.81,46.28-1.52,3.18-2.67,6.49-3.57,9.91-2.14,8.2-4.22,16.41-5.87,24.72-.25,1.24-.67,2.47-1.19,3.62-.46,1.04-1.84,1.55-2.83,1.25-1.06-.32-1.79-1.34-1.71-2.58.05-.79.19-1.59.38-2.36,1.99-8.4,4.01-16.79,5.97-25.19,1.02-4.39,2.7-8.52,4.61-12.58,9.69-20.52,22.26-39.1,37.22-56.16,14.37-16.38,29.98-31.47,46.45-45.69,6.65-5.74,13.58-11.18,20.67-16.36,17.07-12.46,36.41-18.18,57.43-18.49,2.56-.04,5.11-.08,7.67-.1.79,0,1.6,0,2.38.13,1.07.19,2.01,1.39,1.95,2.42-.05,1.06-.61,1.85-1.6,2.15-.9.28-1.86.47-2.8.49-2.55.07-5.11.02-7.67.02Z"/><path class="cls-2" d="M388.37,401.06c2.08-.07,4.19,2.44,3.8,4.53-.23,1.26-1.88,2.12-2.98,1.47-1.41-.84-2.35-2.08-2.71-3.71-.23-1.06.77-2.25,1.88-2.29Z"/><path class="cls-2" d="M427.59,418.25c-.28.61-.4,1.32-.82,1.7-1.07.96-2.35,1.59-3.85,1.61-1.47.02-2.54-1.73-1.89-3.09.81-1.69,3.68-2.7,5.35-1.77.5.28.76.96,1.21,1.55Z"/><path class="cls-2" d="M403.27,403.43c-.29-.07-.83-.06-1.18-.31-1.19-.87-1.98-2.06-2.23-3.53-.13-.81.1-1.58.83-2.09.72-.49,1.53-.53,2.26-.14,1.52.8,2.22,2.21,2.5,3.82.18,1.03-.94,2.2-2.19,2.25Z"/><path class="cls-2" d="M390.22,420.51c-.12.23-.24.74-.56,1.04-1.21,1.18-2.71,1.63-4.37,1.34-.82-.14-1.45-.61-1.66-1.49-.16-.66-.06-1.31.38-1.79,1.14-1.24,2.59-1.8,4.27-1.65,1.1.1,2.07,1.3,1.93,2.54Z"/><path class="cls-2" d="M396.04,433.06c-.01,1.73-.68,2.71-1.73,2.96-1.27.3-2.59-.48-2.87-1.86-.19-.92-.23-1.89-.19-2.84.05-1.1.86-1.71,1.84-1.9,1.05-.2,1.9.37,2.32,1.29.38.85.5,1.82.63,2.34Z"/><path class="cls-2" d="M417.76,410.76c-1.02-.12-1.92-1.36-1.77-2.43.21-1.47,1.42-2.71,2.76-2.82,1.01-.08,2.21.96,2.27,1.99.11,1.71-1.64,3.46-3.26,3.26Z"/><path class="cls-15" d="M194.94,835.84c.23-3.67.49-7.34.7-11.01.35-6.25-.06-12.46-.88-18.65-.21-1.57-.77-2.73-2.48-3.08-.61-.12-1.29-.33-1.73-.72-2.82-2.55-6.36-3.58-9.79-4.88-6.26-2.38-12.51-4.8-18.76-7.22-.74-.29-1.47-.63-2.16-1.02-7.5-4.28-15.5-7.55-23.22-11.38-2.45-1.22-4.68-2.69-6.77-4.47-4.29-3.66-8.12-7.66-10.75-12.71-.81-1.55-1.86-2.98-2.89-4.41-3.57-4.97-6.18-10.43-8.25-16.16-.54-1.5-1.07-3.01-1.67-4.5-2.36-5.87-3.34-11.92-3.2-18.27.25-11.03.25-22.06.22-33.09-.02-7.06,1.14-14.01,1.74-21.01.31-3.67.43-7.34.48-11.01.08-6.26.87-12.33,2.72-18.4,2.04-6.7,3.59-13.57,5.1-20.44,1.02-4.64,2.27-9.36,4.52-13.6,3.67-6.91,6.62-14.17,10.32-21.07,2.79-5.2,5.18-10.62,7.94-15.85,3.44-6.5,7.11-12.86,10.94-19.13.99-1.63,2.12-3.07,3.67-4.32,1.5-1.22,3.15-2.73,2.96-5.17-.09-1.16.84-2.02,1.42-2.97,2.49-4.1,5.1-8.12,7.46-12.29,5.09-9.03,8.1-18.72,8.81-29.1.03-.48-.01-.96.07-1.43.05-.26.24-.53.44-.73.28-.27.58-.2.84.07.66.69,1.42,1.3,2,2.05,1.83,2.34,4.55,3.47,6.91,5.07,1.08.74,2.67.18,3.31-.97.23-.41.47-.87.52-1.33.49-5.01.21-9.89-2.46-14.37-.96-1.61-2.39-3-2.59-5.01,1.81-1.46,3.93-.68,5.88-.69,6.58-.04,13.03-1.38,19.57-1.73,9.25-.5,18.51-1.19,27.78-.38,1.91.17,3.82.35,5.7.68,6.29,1.12,12.57,2.28,18.84,3.51,3.61.7,7.09,1.84,10.52,3.21,4.45,1.77,8.99,3.33,13.52,4.87,7.59,2.58,14.82,5.9,21.69,10.07,6.01,3.65,12.08,7.19,18.17,10.69,11.38,6.55,22,14.22,32.58,21.95,2.32,1.69,4.41,3.69,6.57,5.58,1.19,1.05,2.43,2.05,2.48,3.91.02.76.89.92,1.49.62,3.69-1.84,7.58-3.16,11.06-5.58,11.01-7.67,22.58-14.51,34.04-21.48,2.71-1.65,5.54-3.21,8.5-4.34,2.35-.9,4.95-1.35,7.47-1.55,6.37-.49,12.65-1.97,19.07-1.76,7.72.26,15.25,1.33,22.2,5.04,4.63,2.47,7.25,6.67,9.5,11.1,1.01,2,.81,4.39.42,6.61-.67,3.8-1.91,7.4-3.79,10.8-2.48,4.49-5.55,8.57-8.67,12.62-2.28,2.96-5.41,4.95-8.03,7.52-.32.31-.82.6-1.24.61-2.02.05-3.35,1.36-4.18,2.83-.86,1.53-2.13,2.33-3.46,3.18-4.71,3.01-9.44,5.99-14.18,8.96-2.58,1.61-5.34,2.82-8.16,3.98-6.36,2.61-12.86,4.92-19.46,6.68-7.05,1.87-13.94,4.5-21.29,5.17-.79.07-1.57.28-2.35.46-.83.2-1.59.7-1.67,1.52-.17,1.8-.89,3.32-1.83,4.83-.54.87-.3,1.85.58,2.55.87.69,1.77.64,2.65.05.39-.26.78-.59,1.05-.98,2.03-2.99,5.09-4.23,8.43-5,1.09-.25,2.17-.53,3.26-.78,1.39-.31,2.92-1.1,4.15-.79,1.63.42,1.81,2.48,2.46,3.9,6.98,15.1,13,30.59,18.51,46.26,4.66,13.26,8.46,26.81,11.49,40.57,1.58,7.19,2.86,14.41,4.14,21.65.55,3.14,1.21,6.28,1.96,9.38.37,1.53.09,2.76-.72,4.07-3.78,6.12-7.92,12-12.32,17.69-.98,1.26-2.01,2.49-2.92,3.8-3.72,5.28-8.44,9.55-13.5,13.49-6.31,4.91-12.94,9.35-19.47,13.96-7.47,5.27-14.16,11.46-20.45,18.05-2.39,2.51-4.04,5.73-6.01,8.64-.54.79-.96,1.67-1.53,2.44-5.16,6.9-8.22,14.74-10.34,23-.47,1.85-.94,3.73-1.21,5.62-.71,4.9-1.3,9.81-1.94,14.72-.06.48-.2.96-.16,1.43.59,7.22-1.37,14.26-1.43,21.43-.02,2.79-.87,5.33-2.37,7.69-1.67,2.63-4.63,3.58-7.43,2.13-1.99-1.03-3.83-2.32-5.03-4.31-.58-.96-1.26-1.86-1.74-2.87-3.19-6.61-6.17-13.28-8.23-20.38-1.79-6.19-2.75-12.47-3.71-18.79-.5-3.32-1.08-6.62-1.62-9.94-.26-1.61-.98-3.03-1.87-4.37-1.22-1.86-2.85-2.96-5.17-2.91-2.24.05-4.47,0-6.71,0-11.19.04-22.37.14-33.56.12-6.76-.01-13.34,1.34-19.95,2.44-3,.5-5.95,1.12-9.01,1.12-1.27,0-2.57.07-3.82.29-3.42.6-5.76,2.43-6.87,5.87-1.62,5.01-3.32,9.95-4.03,15.24-.64,4.73-2.05,9.35-3.05,14.03-.4,1.87-.86,3.78-.88,5.67-.12,8.55-2.89,16.28-6.94,23.65-1.24,2.26-2.78,4.3-4.64,6.07-1.86,1.77-3.87,1.99-6.16.8-2.06-1.07-3.55-2.67-4.45-4.84-2.45-5.96-4.07-12.06-3.92-18.6.15-6.71.03-13.43.03-20.14.06,0,.12,0,.18,0Z"/><path class="cls-7" d="M178.66,452.95c-.17-1.6.78-2.97,1.38-4.37,1.22-2.8,1.19-5.54.4-8.42-1.39-5.11-3.39-10.01-5.57-14.79-2.38-5.22-5.01-10.35-8.34-15.08-2.48-3.52-4.77-7.18-7.1-10.81-1.66-2.59-3.62-4.81-6.4-6.31-2.96-1.58-4.11-4.32-4.15-7.57,0-.68.34-1.24,1.11-1.27.63-.02,1.28,0,1.91.08,16.38,2.22,32.84,2.03,49.3,1.6,7.35-.19,14.69-.65,22.03-.98,1.28-.06,2.58,0,3.71-.73.69-.45,1.18-1.1,1.16-1.97-.02-1.07-.6-1.93-1.56-2.18-1.05-.27-2.2-.26-3.31-.22-5.11.22-10.21.52-15.32.74-10.38.44-20.77.64-31.16.42-16.02-.35-31.82-2.6-47.62-5.16-17.87-2.89-60.59-14-63.34-14.68-3.29-.81-6.24-2.32-9.11-4.14-6.35-4.03-13.13-7.27-19.9-10.5-2.32-1.11-4.45-2.45-6.51-3.99-4.09-3.07-8.22-6.08-12.49-8.88-7.36-4.81-10.86-11.85-12.11-20.25-.38-2.53-.54-5.08-.76-7.63-.5-5.95-.05-11.81,1.51-17.59.67-2.47,1.35-4.94,1.87-7.44,1.6-7.66,5.51-14.23,9.48-20.82,3.41-5.65,7.52-10.7,11.98-15.53,4.92-5.33,10.55-9.74,16.82-13.34,1.11-.64,2.31-1.13,3.34-1.88,5.55-4.01,11.95-6.04,18.43-7.8,5.54-1.51,11.14-2.84,16.73-4.17,2.67-.63,5.41-.27,8.12-.2,2.87.08,5.74.29,8.61.44.48.02,1,.16,1.43.01,3.94-1.35,7.45.18,11.09,1.39,10.61,3.54,21.28,6.88,31.9,10.4,10.8,3.58,21.83,6.18,33.11,7.64,12.53,1.62,24.9,4.11,37.32,6.36,8.19,1.48,16.41,2.64,24.71,3.13,8.61.51,17.24.86,25.85,1.35,3.83.22,7.65.51,11.46.95,10.02,1.16,20.09,1.3,30.15,1.47,8.95.15,17.89.24,26.84.3,5.59.04,11.19.02,16.78-.09,1.76-.04,3.11.32,3.97,1.96.75,1.43,1.78,2.56,3.17,3.49,1.17.77,2.15,1.9,3.03,3.02,4.16,5.31,7.18,11.3,10,17.38.66,1.42,1,3.05,1.22,4.62.98,6.98,1.43,14,1.03,21.04-.17,2.86-.55,5.74-1.15,8.54-1.47,6.88-3.23,13.68-6.12,20.13-.33.72-.57,1.55-1.08,2.12-4.63,5.08-7.84,11.29-12.93,16-.8.75-1.47,1.69-2.02,2.64-.55.94-.14,1.87.58,2.6.75.76,1.76.95,2.63.41.93-.58,1.74-1.39,2.52-2.18,1.78-1.83,3.49-3.73,5.27-5.57.16-.17.63-.2.86-.09.21.1.42.49.4.73-.2,2.55-.29,5.12-.71,7.63-.81,4.93-.61,9.88-.55,14.83.1,7.83.07,15.65.28,23.48.24,8.95.6,17.89,1.09,26.83.21,3.82.92,7.61,1.38,11.42.14,1.19.65,2.16,1.65,2.79,3.09,1.96,3.23,5.32,3.99,8.37.19.75-.44,1.1-1.16,1.09-2.08-.01-4.13-.22-6.14-.88-4.13-1.35-8.39-1.83-12.75-1.8-21.42.11-42.83.12-64.25.2-7.35.03-14.69.33-22.01,1.15-4.44.49-8.93.58-13.39.79-7.36.36-14.59,1.55-21.82,2.94-11.76,2.26-23.47,4.86-35.48,5.57-4.14.24-8.25.96-12.37,1.45-.92.11-1.87.57-2.89-.18ZM178.01,306.13c-.6,2.21.22,4.56.39,6.93.13,1.86,2.55,4.08,4.28,3.76,3.6-.66,7.26-1.34,9.65-4.63,1.13-1.56,2.19-3.15,2.83-4.98,2.4-6.9,6.2-13.35,6.62-20.88.03-.47.23-.93.34-1.39.87-3.6-.03-7-1.33-10.28-1.07-2.69-3.11-3.56-5.83-2.62-4.09,1.42-7.19,4.06-9.02,8.06-1.06,2.32-1.92,4.72-3.41,6.85-.62.88-.87,2.04-1.19,3.11-.72,2.45-1.32,4.94-2.08,7.38-.86,2.77-1.37,5.58-1.25,8.7ZM118.71,293.08c.07,1.38.04,2.5.19,3.61.66,4.99,5.32,6.97,9.11,3.67,2.5-2.18,5.03-4.45,6.59-7.53,1.74-3.42,3.53-6.8,4.51-10.55.65-2.47,1.14-5.02,2.13-7.36,1.98-4.73.4-9.13-.94-13.52-.69-2.26-2.81-3.05-5.06-2.33-1.55.49-2.89,1.35-4.01,2.53-4.11,4.3-7.74,8.85-8.99,14.92-.74,3.59-1.9,7.1-2.85,10.65-.54,2.02-.85,4.07-.68,5.91Z"/><path class="cls-6" d="M412.72,501.72c-3.96,2.41-7.79,4.7-11.58,7.05-7.87,4.88-15.75,9.75-23.57,14.71-2.69,1.71-5.21,3.69-7.81,5.54-1.62,1.15-1.86,1.21-3.26-.15-5.99-5.81-12.81-10.54-19.6-15.34-9.13-6.47-18.55-12.47-28.34-17.89-4.61-2.55-9.08-5.35-13.57-8.11-7.25-4.47-15.1-7.59-23.11-10.38-4.37-1.52-8.71-3.12-13.02-4.79-4.5-1.75-9.19-2.72-13.9-3.53-7.86-1.35-15.61-3.34-23.64-3.71-4-.19-7.97-.22-11.97-.06-9.26.37-18.49.95-27.7,2.1-3.78.47-7.65.27-11.48.36-1.07.03-1.84-.31-1.89-1.58-.04-.95-.06-1.95-.34-2.84-1.44-4.51-.5-3.98,3.29-4.67,3.92-.71,7.9-1.14,11.87-1.53,7.94-.78,15.85-1.69,23.72-3.16,9.25-1.73,18.42-4.02,27.82-4.93.79-.08,1.59-.22,2.38-.26,16.59-.74,33.11-2.55,49.75-2.39,18.53.18,37.05.04,55.58,0,2.42,0,4.77.31,7.11.87,2.94.7,5.87,1.45,8.86,1.99,2.44.44,4.76,1.73,7.05,2.8.64.3,1.1,1.12,1.5,1.79,2.87,4.79,5.87,9.52,8.5,14.44,4.26,7.95,9.61,15.03,15.78,21.57,3.4,3.59,6.81,7.16,10.43,10.53.43.4.7.99,1.12,1.59Z"/><path class="cls-6" d="M460.52,783.13c-.21-.41-4.68-11.46-4.78-11.9-2.53-10.56-5.35-20.02-8.29-30.47-.56-1.99-2.18-6.36-2.46-8.41-1.5-10.76-2.58-20.11-4.85-30.72-.67-3.12-3.39-16.72-3.91-19.87-2.54-15.31-2.97-19.83-7.59-34.63-5.96-19.08-13.39-37.59-21.45-55.87-.68-1.55-2.28-3.14-1.41-4.84.72-1.4,2.77-1.34,4.24-1.85,6.02-2.09,12.11-4,18.03-6.39,2.82-1.14,5.57-2.39,8.14-4.02,4.86-3.07,9.73-6.12,14.6-9.17.8-.5,3.82-4.49,4.56-4.93,1.41.78,2.32,6.22,2.79,7.37,3.28,7.99,5.78,14.14,7.77,22.51,1.03,4.35.02,8.16,1.05,12.5.96,4.06,3.16,8.02,3.14,12.2-.06,8.95,2.02,14.76,1.99,23.7-.01,3.36-1.31,13.6-1.79,16.93-1.6,10.92-5.26,20.23-5.2,31.27.06,10.54,3.03,17.78,1.81,28.28-.18,1.58-.18,6.37-.2,7.97-.11,7.51-.04,12.81-.2,20.32-.11,5.31-1.2,13.4-3.39,18.32-1.62,3.63-1.68,17.52-2.59,21.71Z"/><path class="cls-3" d="M36.51,518.64c.38-4.33,1.46-8.33,3.5-12,.93-1.68,2.5-2.92,4.2-3.84,3.4-1.84,7.01-3.04,10.84-3.66,12.13-1.94,23.88-.29,35.34,3.84,6.16,2.22,12.26,4.61,18.34,7.05,2.06.83,4.06,1.89,5.95,3.07,9.76,6.1,19.2,12.66,27.97,20.14.61.52,1.23,1.02,1.82,1.57,1.2,1.13,1.27,1.46.41,2.86-1.58,2.59-3.32,5.09-4.8,7.74-3.99,7.1-7.94,14.23-11.8,21.41-2.5,4.64-4.26,9.65-7.08,14.14-1.07,1.71-1.09,1.75-3.01,1.18-11.04-3.28-21.73-7.53-32.39-11.86-3.55-1.44-7.1-2.9-10.68-4.27-5.13-1.95-9.98-4.52-13.96-8.24-9.25-8.63-18.14-17.59-22.58-29.91-1.1-3.05-1.59-6.17-2.05-9.21Z"/><path class="cls-6" d="M454.17,783.34c-.15.31,1.99,1.67,1.77,1.78-.22.11-2.9-.9-3.09-1.07-.72-.63-1.39-1.32-2.03-2.03-2.23-2.44-4.96-2.68-7.92-1.77-.76.23-1.53.54-2.17.99-5.44,3.89-11.81,5.56-18.02,7.58-4.25,1.39-8.43,1.37-12.63-.4-2.95-1.24-5.97-2.34-8.61-4.15-4.92-3.37-10.36-4.8-16.25-4.97-2.17-.06-4.43.45-6.53-.55.45-2.64,3.03-3.34,4.59-4.96,4.69-4.88,10.47-8.38,15.97-12.19,7.37-5.1,14.6-10.34,21.04-16.59,1.25-1.22,2.42-2.55,3.48-3.94,4.73-6.23,9.73-12.27,13.96-18.88.26-.4.54-.8.89-1.12.2-.19.54-.26.83-.3.39-.05.59.16.65.53.62,3.46,1.36,6.9,1.83,10.38.62,4.6,1.43,9.12,2.8,13.58,1.4,4.57,2.26,9.31,3.42,13.96,1.79,7.12,3.65,14.23,5.46,21.35.24.93.38,1.88.56,2.79Z"/><path class="cls-6" d="M156.28,489.31c.67-1.35,1.09-2.19,1.5-3.04,1.46-3.02,3-6,3.43-9.4.18-1.38.88-2.27,2.42-2.53,1.6-.27,2.88.03,3.75,1.4,1.58,2.47,1.88,5.01.38,7.68q-3.38,6.02-11.49,5.89Z"/><path class="cls-6" d="M158.63,462.51c.05-.28.11-.75.2-1.21.21-1.07,1.14-1.59,2.12-1.18,2.41,1.01,4.31,2.63,5.62,4.88.55.95,1.07,1.95,1.41,2.99.28.85,1.65,1.39,1.03,2.37-.81,1.26-2.21.94-3.46.68-4.33-.92-6.95-4.09-6.93-8.53Z"/><path class="cls-13" d="M173.89,474.08c5.12,5.82,6.46,8.8,6.29,13.46-.44-.19-.94-.28-1.24-.56-.9-.88-1.74-1.82-2.55-2.78-1.12-1.31-2.76-2.51-3.14-4.02-.42-1.69.33-3.67.64-6.09Z"/><path class="cls-9" d="M173.92,464.87s0,.21-.05.35c-.14.41-.12,1.01-.79.92-.26-.04-.58-.24-.71-.46-.71-1.23-1.34-2.51-2.08-3.73-.41-.67-1.05-1.21-1.42-1.89-.46-.85-2.35-1.41-1.24-2.52.84-.84,1.89.65,2.86,1.05,2.79,1.13,3.5,3.44,3.42,6.29Z"/><path class="cls-10" d="M187.99,149.91c.85,1.03.58,1.58-.99,2.01-.5-.3-.94-.62-.65-1.33.33-.79.82-1.1,1.64-.68Z"/><path class="cls-12" d="M178.01,306.13c-.12-3.12.38-5.93,1.25-8.7.76-2.44,1.36-4.93,2.08-7.38.31-1.07.57-2.23,1.19-3.11,1.49-2.13,2.34-4.53,3.41-6.85,1.83-4,4.93-6.64,9.02-8.06,2.72-.94,4.76-.07,5.83,2.62,1.3,3.28,2.2,6.69,1.33,10.28-.11.47-.32.92-.34,1.39-.42,7.53-4.22,13.98-6.62,20.88-.63,1.83-1.7,3.42-2.83,4.98-2.39,3.29-6.05,3.97-9.65,4.63-1.73.32-4.15-1.91-4.28-3.76-.16-2.38-.99-4.73-.39-6.93Z"/><path class="cls-14" d="M118.71,293.08c-.17-1.84.14-3.89.68-5.91.95-3.55,2.11-7.06,2.85-10.65,1.25-6.08,4.88-10.62,8.99-14.92,1.12-1.18,2.46-2.04,4.01-2.53,2.25-.72,4.37.07,5.06,2.33,1.34,4.4,2.92,8.8.94,13.52-.98,2.34-1.48,4.89-2.13,7.36-.98,3.75-2.77,7.13-4.51,10.55-1.56,3.07-4.09,5.35-6.59,7.53-3.8,3.3-8.45,1.32-9.11-3.67-.15-1.1-.12-2.23-.19-3.61Z"/><g id="solbrillz"><g class="cls-17"><path class="cls-4" d="M191.3,340.33c-1.95,0-3.92-.21-5.84-.62-7.09-1.51-13.19-5.59-17.18-11.51-3.98-5.91-5.37-12.94-3.92-19.79,2.54-11.96,13.54-20.65,26.15-20.65,1.95,0,3.92.21,5.84.62,14.64,3.11,24.1,17.15,21.09,31.3-2.54,11.96-13.54,20.65-26.15,20.65h0Z"/><path class="cls-1" d="M190.51,288.26c1.92,0,3.85.2,5.74.61,6.97,1.48,12.96,5.49,16.87,11.3,3.9,5.8,5.27,12.69,3.84,19.41-2.49,11.74-13.28,20.25-25.66,20.25-1.92,0-3.85-.2-5.74-.61-6.97-1.48-12.96-5.49-16.87-11.3-3.9-5.8-5.27-12.69-3.84-19.41,2.49-11.74,13.28-20.25,25.66-20.25M190.51,287.26c-12.68,0-23.98,8.53-26.64,21.05-3.07,14.45,6.55,28.72,21.48,31.89,2,.42,3.99.63,5.95.63,12.68,0,23.98-8.53,26.64-21.05,3.07-14.45-6.55-28.72-21.48-31.89-2-.42-3.99-.63-5.95-.63h0Z"/></g><g class="cls-17"><path class="cls-4" d="M124.21,325.48c-1.95,0-3.92-.21-5.84-.62-7.09-1.51-13.19-5.59-17.18-11.51-3.98-5.91-5.37-12.94-3.92-19.79,2.54-11.96,13.54-20.65,26.15-20.65,1.95,0,3.92.21,5.84.62,14.64,3.11,24.1,17.15,21.09,31.3-2.54,11.96-13.54,20.65-26.15,20.65h0Z"/><path class="cls-1" d="M123.42,273.41c1.92,0,3.85.2,5.74.61,6.97,1.48,12.96,5.49,16.87,11.3,3.9,5.8,5.27,12.69,3.84,19.41-2.49,11.74-13.28,20.25-25.66,20.25-1.92,0-3.85-.2-5.74-.61-6.97-1.48-12.96-5.49-16.87-11.3-3.9-5.8-5.27-12.69-3.84-19.41,2.49-11.74,13.28-20.25,25.66-20.25M123.42,272.41c-12.68,0-23.98,8.53-26.64,21.05-3.07,14.45,6.55,28.72,21.48,31.89,2,.42,3.99.63,5.95.63,12.68,0,23.98-8.53,26.64-21.05,3.07-14.45-6.55-28.72-21.48-31.89-2-.42-3.99-.63-5.95-.63h0Z"/></g><g class="cls-16"><rect class="cls-10" x="163.63" y="313.46" width="54.85" height="3.8" transform="translate(-171.16 246.42) rotate(-48.02)"/></g><g class="cls-16"><rect class="cls-10" x="160.43" y="311.87" width="55.44" height="2.18" transform="translate(-170.34 243.47) rotate(-48.02)"/></g><g class="cls-16"><rect class="cls-10" x="97.01" y="298.3" width="54.85" height="3.8" transform="translate(-181.95 191.88) rotate(-48.02)"/></g><g class="cls-16"><rect class="cls-10" x="93.81" y="296.71" width="55.44" height="2.18" transform="translate(-181.12 188.93) rotate(-48.02)"/></g><path class="cls-1" d="M190.44,343.79c-3.83,0-7.59-.75-11.16-2.22-13.48-5.55-20.8-19.84-17.39-33.98l.12-.5-9.08-1.93-.1.5c-.35,1.85-.91,3.7-1.65,5.51-4.55,11.06-15.22,18.21-27.18,18.21-3.83,0-7.58-.75-11.16-2.22-14.98-6.16-22.16-23.36-15.99-38.35,4.55-11.06,15.22-18.21,27.18-18.21,3.83,0,7.58.75,11.16,2.22,11.29,4.64,18.6,15.95,18.19,28.15v.42s9.81,2.09,9.81,2.09l.16-.38c4.57-10.98,15.22-18.08,27.12-18.08,3.83,0,7.58.75,11.16,2.21,7.26,2.98,12.92,8.62,15.94,15.86,3.02,7.24,3.04,15.23.06,22.48-4.55,11.06-15.22,18.21-27.17,18.21h0ZM190.73,288.57c-11.93,0-22.38,8.48-24.87,20.17-2.91,13.72,5.88,27.26,19.6,30.17,1.75.37,3.54.56,5.31.56,11.93,0,22.39-8.48,24.87-20.16,1.41-6.65.15-13.45-3.55-19.15s-9.41-9.62-16.06-11.03c-1.75-.37-3.53-.56-5.3-.56ZM124.23,273.83c-11.93,0-22.39,8.48-24.87,20.17-1.41,6.65-.15,13.45,3.56,19.15,3.7,5.7,9.41,9.61,16.06,11.02,1.75.37,3.54.56,5.31.56,11.92,0,22.38-8.48,24.86-20.16,2.91-13.73-5.88-27.27-19.6-30.18-1.75-.37-3.54-.56-5.31-.56Z"/><path class="cls-1" d="M124.03,271.12c3.77,0,7.46.73,10.97,2.18,11.09,4.56,18.28,15.68,17.88,27.67l-.03.84.82.17,9.01,1.91.81.17.32-.77c4.5-10.8,14.96-17.77,26.66-17.77,3.76,0,7.45.73,10.97,2.18,7.13,2.93,12.7,8.47,15.67,15.59,2.97,7.12,2.99,14.97.06,22.1-4.47,10.87-14.96,17.9-26.71,17.9-3.77,0-7.46-.73-10.97-2.18-6.41-2.64-11.65-7.49-14.77-13.66-3.09-6.11-3.92-13.12-2.32-19.74l.24-1-1-.21-8.08-1.72-1-.21-.19,1c-.35,1.82-.89,3.64-1.62,5.41-4.47,10.87-14.96,17.9-26.71,17.9-3.77,0-7.46-.73-10.97-2.18-14.73-6.06-21.78-22.96-15.72-37.69,4.47-10.88,14.96-17.9,26.71-17.9M124.28,325.24c12.16,0,22.82-8.65,25.35-20.56,2.97-14-5.99-27.8-19.99-30.77-1.78-.38-3.61-.57-5.41-.57-12.16,0-22.83,8.65-25.36,20.57-1.44,6.78-.15,13.71,3.63,19.52,3.78,5.81,9.59,9.8,16.37,11.24,1.78.38,3.6.57,5.41.57M190.78,339.97c12.16,0,22.83-8.65,25.36-20.56,2.97-14-6-27.8-20-30.77-1.78-.38-3.6-.57-5.41-.57-12.16,0-22.83,8.65-25.36,20.57-2.97,13.99,6,27.79,19.99,30.76,1.78.38,3.61.57,5.41.57M124.03,270.12c-11.75,0-22.89,6.98-27.64,18.52-6.28,15.26,1.01,32.72,16.27,39,3.72,1.53,7.57,2.25,11.35,2.25,11.75,0,22.89-6.98,27.64-18.52.76-1.84,1.32-3.72,1.68-5.6l8.08,1.72c-3.38,14.06,3.9,28.88,17.69,34.56,3.72,1.53,7.57,2.25,11.35,2.25,11.75,0,22.89-6.98,27.64-18.52,6.28-15.26-1.01-32.72-16.27-39-3.72-1.53-7.56-2.25-11.35-2.25-11.71,0-22.81,6.93-27.58,18.39l-9.01-1.91c.4-12.11-6.63-23.75-18.5-28.63-3.72-1.53-7.57-2.25-11.35-2.25h0ZM124.28,324.24c-1.72,0-3.46-.18-5.2-.55-13.48-2.86-22.09-16.1-19.23-29.58,2.49-11.73,12.85-19.77,24.38-19.77,1.72,0,3.46.18,5.21.55,13.47,2.86,22.08,16.11,19.22,29.59-2.49,11.73-12.85,19.77-24.37,19.77h0ZM190.78,338.97c-1.72,0-3.46-.18-5.21-.55-13.47-2.86-22.08-16.11-19.22-29.58,2.49-11.73,12.85-19.78,24.38-19.78,1.72,0,3.46.18,5.2.55,13.48,2.86,22.09,16.11,19.23,29.59-2.49,11.72-12.85,19.76-24.38,19.76h0Z"/></g></g></svg>