<?xml version="1.0" encoding="UTF-8"?><svg id="Layer_1" xmlns="http://www.w3.org/2000/svg" viewBox="0 0 654.78 716.83"><defs><style>.cls-1{fill:#000;stroke-width:0px;}</style></defs><g id="dværg"><path class="cls-1" d="M634.35,659.22c-11.32-38.99-31.96-42.84-58.68-54.56-6.37-2.82-13.44-5.15-20.93-7.2-8.77-2.4-18.1-4.37-27.72-6.21-6.43-1.13-39.1-3.38-66.1-5.36-17.54,9.6-35.99,18.21-49.21,22.8,0,0,3.6-18.92,3.46-36.35,0-5.01-.35-9.88-1.13-14.12,5.66,7.84,12.16,11.86,19.02,13.2,16.62,3.46,35.21-8.33,48.57-18.49,49.14-33.25,77.92-44.05,68.37-110.25-10-69.87-33.5-134.19-63.6-193.58-1.76,45.34,7.28,78.54,5.77,123.91-1.29,38.63-38.37,47.23-86.69,49.18-5.87.24-12.63.43-19.8.59-4.7.11-9.59.21-14.52.29.71-1.18,1.41-2.4,2.08-3.65.85-1.57-.34-3.51-2.13-3.51h-97.26c-1.99,0-3.13,2.35-1.87,3.89.6.74,1.21,1.47,1.82,2.18l-21-1.1-15.31-.8c-3.91.19-73.19-.04-75.29-46.72-1.27-27.66,1.48-82.61,7.46-118.81-36.63,66.27-89.26,167.8-62.68,246.85,7.49,22.23,33.8,39.03,53.31,56.19,7.14,6.28,13.79,11.43,19.87,13.48,4.17,1.41,8.06,1.41,11.59-.71,4.6-2.61,8.7-8.68,12.23-19.55-.35,4.02.15,11.01.99,18.99.43,4.02.99,8.33,1.56,12.56,2.12,16.09,4.74,31.69,4.74,31.69-12.45-9.46-25.74-18.42-38.96-27.45-25.67,3.17-49.85,6.14-55.86,7.26-48.36,9.04-73.58,20.83-78.4,68.05-3.88-36.5,9.65-70.59,58.86-81.04,7.4-1.58,31.7-6.2,55.81-7.9-17.95-12.98-34.92-26.61-48.71-42.7-30.54-35.57-24.11-84.06-13.57-128.67,16.27-69.44,49.95-130.67,90.87-188.28-.74,20.24-1.96,40.16-2.71,60.24-1.13,28.16-3.6,56.33-2.97,84.42,1.13,53.29,122.12,48.88,153.23,49.1,30.9.21,146.76,5.03,149.66-50.09,2.12-39.6-.4-72.19-.4-112.64.92.07-4.19-24.01-2.99-22.31,50.2,74.46,98.06,169.61,88.52,262.49-4.03,39.32-25.1,58.8-61.94,74.75-6.22,5.22-14.63,11.01-23.97,16.8,21.78.21,46.46.77,52.18.85,14.78.21,28.21,1.27,40.23,3.1,60.03,9.11,63.77,37.04,64.2,79.19Z"/><path class="cls-1" d="M252.62,342.24c-18.87-2.16-30.11-12.41-29.61-32.74.51-20.52,13.1-31.28,32.27-30.87,19.52.42,31.68,13.8,31.2,32.67-.48,18.95-12.92,30.19-33.85,30.94Z"/><path class="cls-1" d="M379.84,339.08c-18.87-2.16-30.11-12.41-29.61-32.74.51-20.52,13.1-31.28,32.27-30.87,19.52.42,31.68,13.8,31.2,32.67-.48,18.95-12.92,30.19-33.85,30.94Z"/><path class="cls-1" d="M346.56,605.06c1.32,4.97-4.35,75.04-5.09,56-1.35-34.73-15.69-15.29-15.66-9.87.12,21.57-34.93-18.35-29.21,10.1,3.87,19.23-11.43-31.85-11.49-46.8,8.88,22.43,47.38,28.75,61.44-9.43Z"/><path class="cls-1" d="M217.62,584.47c16.64,15.53,32.5,30.34,48.96,45.71,2.45,2.29,7.6-3.18,10.58-16.55.66-2.94-2.41,40.49-.18,42.58-24.23-27.72-61.3-40.16-59.37-71.73Z"/><path class="cls-1" d="M404.17,575.87c-11.38,25.84-27.35,35.06-41.19,52.82-2.06,2.65-8-1.95-13.05-14.69-1.11-2.8,8.72,39.61,6.84,42.02,19.59-31.17,54.25-49.27,47.39-80.15Z"/><path class="cls-1" d="M384.26,415.6h-129.08c-2.64,0-4.15,3.11-2.48,5.16.03.04.07.08.1.12,44.99,55.06,102.75,54.76,132.88,1.9.48-.83.94-1.67,1.4-2.52,1.12-2.09-.46-4.66-2.82-4.66ZM273.8,421.98c-.61-.71-1.22-1.44-1.82-2.18-1.26-1.54-.12-3.89,1.87-3.89h97.26c1.79,0,2.98,1.94,2.13,3.51-.67,1.25-1.37,2.47-2.08,3.65-22.58,37.42-64.24,37.68-97.36-1.09Z"/><path class="cls-1" d="M180.25,220.8c-9.84-17.57,4.69-35.61,0-47.8,6.54,7.9,17.08,11.22,26.71,8.43,10.47-3.03,17.92-12.71,18.28-23.9,8.97,15.15,14.5,15.85,16.87,15.46,11.51-1.86,21.79-38.04,14.06-46.39,14.85,10.46,3.91,28.39,12.65,30.93,9.9,2.87,25.76-6.83,28.12-25.3,3.08,13.36,9.86,21.33,18.63,22.49,11.74,1.56,29.62-10.87,30.58-36.55,4.27,20.77,9.72,26.06,14.06,26.71,11.38,1.71,9.4-31.28,35.14-52.01-13.53,16.37-8.59,39.5,5.62,47.8,12.11,7.07,30.61,3.19,40.77-11.25-1.21,2.16-9.69,17.67-2.81,26.71.21.27,1.03,1.33,2.31,2.28,9.63,7.16,28.95-3.66,31.43-5.09.94,8.9,7.91,65.63,5.8,92.34-4.74-6.85-7.91-31.63-15.29-59.83,0,0-24.26-6.01-28.73-10.54-7.5-7.61-3.95-23.46-3.95-23.46,0,0-27.2,16.83-33.21,11.86-18.19-15.02-1.32-15.29-22.93,1.32-13.74,10.56-26.1-16.61-26.1-16.61,0,0-5.54,16.34-24.78,15.82-8.81-.24-23.46-6.59-32.68.79-10.94,8.75-24.78,5.54-24.78,5.54-32.16,28.99-39.8,6.59-39.8,6.59,0,0-1.05,11.6-10.81,19.77-9.22,7.72-20.82.26-20.82.26-5.2,3.64-9.95,19.72-14.32,23.63Z"/></g></svg>