<?xml version="1.0" encoding="UTF-8"?><svg id="Layer_1" xmlns="http://www.w3.org/2000/svg" viewBox="0 0 654.41 716.83"><defs><style>.cls-1{fill:#000;stroke-width:0px;}</style></defs><g id="elver"><path class="cls-1" d="M462.51,666.97c-19.14-31.47,8.72-91.19,2.94-115.32-8.5-35.52-12.88-80.07-3.63-113.97,8.72-31.98,7.71-64.97.89-92.66.84-63.07-44-149.37-126.08-153.57-83.04-2.13-144.39,71.4-145.25,141.6-2.29,23.46-14.73,77.03-10.65,98.1,4.83,24.95,11.61,48.49,11.49,91.53-.02,8.95-16.02,29.87-3.41,56.06,17.36,36.05-6.75,58.36,2.27,92.02h0c-14.72-30.47,4.6-37.05-4.6-64.53-16.75-50.04-10.69-56.43-9.52-63.69,8.62-43.43,8.16-68.96-6.44-106.75-9.5-24.58,1.24-45.09-2.76-45.86-10.9-2.09-57.69-62.01-83.48-91.01-18.68-21.01-33.78-45.74-52.01-67.23,22.47,6.2,48.68,18.23,71.03,24.4,2.79.77,1.94-6.78,2.83-9.75,37.5-124.29,112.31-171.65,204.47-178.62,58.77-4.45,108.48,8.07,145.75,39.44,43.35,37.48,72.76,79.81,83.72,138.99.63,3.4,3.88,12.14,6.91,11.02,12.34-4.57,19.16-8.43,37.9-16.71l37.76-21.6c-3.01,5.32-32.66,48.61-36.3,53.36-12.45,16.27-25.42,32.13-38.92,47.39-55.64,69.13-51.59,72.71-71.28,67.93,0,0,5.52,26.89-1.49,42.64-16.79,37.73-8.32,54.37-2.85,100.45,12.44,31.78-4.96,71.53-7.8,78.98-7.36,19.32-1.47,57.36-1.47,57.36ZM468.59,300.31c1.83,3.21,6.66,8.93,8.9,6.04,32.57-42.12,61.43-31.41,48.13-64.81-15.6-100.72-99.19-167.14-194.31-166.22-99.28.97-192.83,65.85-214.91,162.85-3.79,16.67-10.33,21.19,15.24,34.87,16.96,9.07,27.04,19.34,41.2,27.92,2.63,1.59,5.94.77,7.51-2.01,34.35-60.88,88.35-121.22,142.71-122.76,72.88-.96,108.65,59.31,145.54,124.13ZM591.88,251c-68.18,18.82-128.63,48.4-115.92,125.04.82,4.92,11.11,8.17,14.06,4.32,28.3-36.93,71.78-90.12,101.86-129.36ZM55.54,249.8c32.68,42.89,80.19,102.02,108.18,129.58,3.63,3.57,9.33,2.1,9.79-3.18,5.43-61.79,1.55-75.91-117.98-126.4Z"/><path class="cls-1" d="M210.64,451.45c33.53,35.2,62,66.83,90.02,83.46,16.97,10.07,36.62,8.88,52.58-2.73,31.16-22.69,60.91-51.57,81.19-68.37-3.64,22.59-83.42,93.48-106.62,94.53-19.42.88-92.61-48.18-117.17-106.89Z"/><path class="cls-1" d="M536.34,665.38s0-.01,0-.02c0-85.57-2.89-171.69-2.89-257.25,1.87-79.91,6.78-127.08,6.29-17.4l-.08,8.96-.38,264.78c-.39,65.35-1.89,17.7-2.95.94Z"/><path class="cls-1" d="M103.65,656.67v-255.76c1.46-72.41,3.24-129.87,6.2,0,0,85.37-1.82,171.52-1.82,256.89-1.09,35.32-3.57,22.4-4.38-1.14Z"/><path class="cls-1" d="M302.33,297.79c2.73,8.52,1.86,17.69.7,26.62-2.44,18.85-6.82,37.04-36.79,28.47-14.81-4.23-33.9-23.71-36.61-39.3-8.69-28.31,3.25-40.96,38.32-40.75,18.33.2,29.46,9.63,34.37,24.96Z"/><path class="cls-1" d="M341.47,297.27c-2.73,8.52-1.86,17.69-.7,26.62,2.44,18.85,6.82,37.04,36.79,28.47,14.81-4.23,33.9-23.71,36.61-39.3,8.69-28.31-3.25-40.96-38.32-40.75-18.33.2-29.46,9.63-34.37,24.96Z"/><path class="cls-1" d="M379.16,539.67c5.61,15.67,14.06,64.46,21.23,67.36,8.42,3.4,43.23,6.22,49.91,7.73,13.18,2.99,35.66,8.38,46.92,14.76,5.27,2.99,31.45,28.99,39.71,70.29,3.19,15.93-11.77,17.22-18.45,2.28-6.61-14.78-12.18-25.59-19.15-39.19-3.51-6.85-6.88-11.17-12.13-15.46-6.07-4.97-15.64-12.13-24.95-15.29-8.02-2.72-64.65-10.45-72.26-14.16-7.14-3.48-10.44-67.3-10.83-78.33Z"/><path class="cls-1" d="M273.62,527.77c.97,16.7-.87,73.65-10.83,79.15-9.22,5.09-76.6,22.94-85.75,28.04-20.26,11.28-36.41,23.35-46.22,53.77-3.04,9.42-20.63,20.64-18.1,11.07,11.6-43.93,20.84-64.22,51.14-76.44,10.5-4.23,62.62-22.77,81.01-27.41,10.1-2.55,22.56-44.37,28.75-68.18Z"/></g></svg>