<?xml version="1.0" encoding="UTF-8"?><svg id="Layer_1" xmlns="http://www.w3.org/2000/svg" viewBox="0 0 668.55 735.74"><defs><style>.cls-1{fill:#000;stroke-width:0px;}</style></defs><g id="Gnome"><path class="cls-1" d="M247.37,590.38c-17.89-48.18,7.06-101.18,41.18-110.67-35.57-19.33-56.86-47.13-75.89-69.46-14.14-22.62-26.16-63.92,4.49-10.11,76.69,120.16,202.77,111.02,272.87-20.42,2.11,3.22-11.29,34.27-16.58,41.91-20.13,24.56-35.57,40.07-56.71,52.45,29.5,26.72,52.64,67.57,37.38,112.49-.53,1.55-1.1,3.11-1.72,4.68-5.3,1.98-26.73,6.86-26.85,4.53-.08-1.59,20.67-5.69,23.87-11.6,8.9-16.41,4.86-59.58-4.95-72.43-35.73-46.81-28.34-40.22-65.02-24.97-1.69.7-3.5,1.03-5.29,1.38-21.69,4.32-30.77,5.66-51.73.63-3.53-.85-7.16-1.28-10.52-2.7-31.15-13.15-45.99,2.1-64.85,50.89-2.79,7.22-.37,38.22,1.46,45.87,1.2,5.01,21.04,7.97,21.07,10.02.03,2.48-17.46-1.85-22.2-2.5Z"/><path class="cls-1" d="M427.6,552.1c-3.33,0-6.13,2.68-6.47,6.21-1.4,13.98-2.87,28.09-4.4,43.48-.33,3.53-3.2,6.28-6.53,6.28h-126.52c-3.27,0-6.6-3.25-7.2-6.63-2.53-14.82-4.13-28.3-6-42.21-.47-3.88-3.13-7.48-6.8-6.78l-1.8.35c-3.53.64-3.73,4.87-3.13,8.61,2.87,17.72,3.33,21.67,5.6,35.36.4,2.33.87,4.87,1.33,7.83,2,11.65,11.13,11.93,11.13,11.93,1.27,3.18.47,35.57,2.6,44.61,2.13,9.25,3.93,7.2,12.33,7.91,15.4.42,55.39,4.66,55.53-9.46,0,16.09,41.13,10.73,50.13,10.73,7.13-.28,14.13-1.55,15.73-8.26,2.07-8.54-.47-34.3,2.07-45.95,0,0,10.47-4.38,11.53-9.95.4-1.98.73-3.88,1.07-5.86.07-.56.2-1.2.27-1.76,2.07-12.49,3.13-25.06,4.2-37.34v-.99c0-3.67-1.33-8.12-4.67-8.12ZM342.62,652.47c0,3.6-4.45,8.96-7.92,8.96l-40.48.3c-8.37.75-10.16-3.27-10.16-6.87l-1.64-38.54,60.65-.9-.45,37.05ZM408.35,655.16c0,3.6-1.05,8.66-7.92,8.37l-40.63.9c-3.47,0-8.37-5.06-8.37-8.66l-1.05-40.03,59.15.3-1.2,39.14Z"/><path class="cls-1" d="M214.2,289.94c4.9,15.51,9.26,40.11,7.88,63.53-15.04-44.25-37.78-34.36-22.89-5.56-3.82-5.28-8.17-10.36-9.29-16.93-3.22-18.85,11.11-11.96,19.36-23.04-8.64-26.26-60.38-44.81-99.99-56.51,18.61,39.07,59.71,84.82,58.78,125.02-.14,6.12,5.02,10.42,9.35,7.88,6.19-3.63,12.85-7.97,18.76-11.78,5.16-3.32,11.52-.29,14.3,6.45.14.33.26.59.36.79-8.24,7.75-10.6.39-19.59,6.5-10.44,7.1-29.82,14.92-31.24-1.75-3.2-37.61-10.65-57.68-31.72-83.37-1.56-2.18-16.69-27.5-21.24-34.44-22.18-33.87-2.76-28.77,13.53-22.45,32.6,12.66,42.37,14.01,57.45,23.23l36.16,22.41Z"/><path class="cls-1" d="M480.93,296.22c-4.9,15.51-9.26,40.11-7.88,63.53,15.04-44.25,37.78-34.36,22.89-5.56,3.82-5.28,8.17-10.36,9.29-16.93,3.22-18.85-11.11-11.96-19.36-23.04,8.64-26.26,60.38-44.81,99.99-56.51-18.61,39.07-59.71,84.82-58.78,125.02.14,6.12-5.02,10.42-9.35,7.88-6.19-3.63-12.85-7.97-18.76-11.78-5.16-3.32-11.52-.29-14.3,6.45-.14.33-.26.59-.36.79,8.24,7.75,10.6.39,19.59,6.5,10.44,7.1,29.82,14.92,31.24-1.75,3.2-37.61,10.65-57.68,31.72-83.37,1.56-2.18,16.69-27.5,21.24-34.44,22.18-33.87,2.76-28.77-13.53-22.45-32.6,12.66-42.37,14.01-57.45,23.23l-36.16,22.41Z"/><path class="cls-1" d="M200.61,265.88c5.85-7.02,25.52-23.91,15.59,9.27-.72,2.42,11.65.58,11.65.58,16.98-4.74,28.56-50.93,42.73-63.3,63.84-55.7,134.48-50.35,201.4,34.86,5.97,7.59,25,19.43,25.6,19.87-64.62-133.73-262.73-127.01-296.97-1.28ZM222.62,237.69c-2.93-3.98,1.4-8.52,5.29-5.48,2.94,4.03-1.44,8.51-5.29,5.48ZM241.01,251.7c-.59,3.71-3.49,6.71-7.07,7.32-5.93,1.02-10.97-4.2-10.01-10.34.59-3.71,3.48-6.71,7.06-7.32,5.92-1.02,10.99,4.2,10.02,10.34ZM263.48,206.28c-3.99,3.17-8.54-1.52-5.49-5.69,4.03-3.16,8.56,1.55,5.5,5.69,0,0,0,0,0,0Z"/><path class="cls-1" d="M269.98,248.87c17.99-53.31,85.29-75.74,125.71-41.89-49.86-6.75-93.04-1.15-125.71,41.89Z"/><path class="cls-1" d="M309.06,396.61l11.38.37,5.91,7.22,5.43-7.72,33.74.2,6.25,7.97,6.92-7.67,10.03-.37c2.14,0,3.35,4.55,2.16,7.91-15.71,44.39-55.53,46.6-83.52.94-1.86-3.03-.75-8.85,1.7-8.85Z"/><path class="cls-1" d="M319.03,310.15c-3.33-13.49-15.51-21.26-27.17-17.98-23.59,6.64-21.32,4.77-14.82,30.78,3.37,13.48,15.62,21.68,27.17,17.98,23.61-7.56,21.4-4.15,14.82-30.78Z"/><path class="cls-1" d="M374.72,308.32c2.39-13.73,13.99-22.5,25.84-20.2,23.98,4.65,21.59,2.97,16.91,29.45-2.43,13.72-14.07,22.92-25.84,20.2-24.07-5.57-21.62-2.35-16.91-29.45Z"/></g></svg>