<?xml version="1.0" encoding="UTF-8"?>
<svg id="Layer_2" data-name="Layer 2" xmlns="http://www.w3.org/2000/svg" viewBox="0 0 286.8 286.8">
  <defs>
    <style>
      .cls-1 {
        fill: #000;
      }

      .cls-1, .cls-2 {
        stroke-width: 0px;
      }

      .cls-2 {
        fill: none;
      }
    </style>
  </defs>
  <g id="Layer_13" data-name="Layer 13">
    <rect class="cls-2" width="286.8" height="286.8"/>
  </g>
  <g id="Barbarian">
    <path class="cls-1" d="M44.35,187.02c.13-20.83,6.56-39.59,18.28-56.51,18.87-27.23,37.94-54.34,51.67-84.67,4.66-10.29,8.56-20.92,12.6-31.48,4.5-11.77,16.06-16.17,26.02-9.33,2.53,1.74,5.05,4.57,5.97,7.42,13.99,43.24,39.06,80.27,64.48,117.24,23.29,33.86,25.9,69.98,5.83,105.87-21.09,37.72-58.24,53.73-97.16,49.76-44.91-4.58-78.72-40.89-85.67-78.87-1.17-6.39-1.39-12.95-2.04-19.43ZM119.76,236.57c8.42-.43,15.85-4.4,20.48-12.78,4.83-8.74,4.04-17.37-.9-25.91-5.64-9.76-10.98-19.71-16.65-29.45-.8-1.38-2.93-3.07-4.15-2.86-1.61.27-3.4,1.99-4.31,3.56-4.95,8.58-9.65,17.31-14.46,25.97-1.25,2.25-2.81,4.34-3.84,6.68-7.25,16.45,4.87,34.89,23.83,34.8Z"/>
  </g>
</svg>