<?xml version="1.0" encoding="UTF-8"?>
<svg id="Layer_2" data-name="Layer 2" xmlns="http://www.w3.org/2000/svg" viewBox="0 0 286.8 286.8">
  <defs>
    <style>
      .cls-1 {
        fill: #000;
      }

      .cls-1, .cls-2 {
        stroke-width: 0px;
      }

      .cls-2 {
        fill: none;
      }
    </style>
  </defs>
  <g id="Layer_13" data-name="Layer 13">
    <rect class="cls-2" width="286.8" height="286.8"/>
  </g>
  <g id="Monk">
    <g>
      <path class="cls-1" d="M116,35.26c.1-18.76,15.03-33.71,33.81-33.83,18.81-.12,34.03,15.13,34.03,34.1,0,18.95-15.25,34.21-34.04,34.07-18.94-.14-33.89-15.33-33.79-34.34Z"/>
      <path class="cls-1" d="M101.13,70.2c-.34,17.12-14.69,31.16-31.44,30.75-17.39-.42-30.98-14.58-30.68-31.97.29-16.98,14.66-30.82,31.66-30.47,17.01.35,30.8,14.69,30.46,31.69Z"/>
      <path class="cls-1" d="M64.03,150.2c-.33,15.75-13.3,28.2-28.91,27.76-15.71-.44-27.88-13.37-27.48-29.18.4-15.48,13.27-27.86,28.65-27.56,15.67.3,28.06,13.25,27.73,28.98Z"/>
      <path class="cls-1" d="M95.44,229.17c.28,13.75-10.81,25.52-24.34,25.81-14.57.32-26.03-10.35-26.43-24.6-.4-14.27,10.6-26.02,24.76-26.44,13.92-.41,25.72,11.03,26.01,25.23Z"/>
      <path class="cls-1" d="M172.43,263.94c-.11,12.52-10.38,22.61-22.79,22.4-12.53-.21-22.37-10.38-22.22-22.97.15-12.57,10.35-22.58,22.79-22.37,12.54.21,22.33,10.32,22.22,22.94Z"/>
      <path class="cls-1" d="M210.11,228.94c.32-10.76,9.4-19.53,19.97-19.3,10.99.25,19.68,9.36,19.4,20.34-.28,10.73-9.36,19.5-19.97,19.28-10.93-.22-19.72-9.43-19.4-20.32Z"/>
      <path class="cls-1" d="M280.8,149.76c0,9.32-7.5,16.84-16.82,16.82-9.32-.01-16.72-7.47-16.75-16.9-.03-9.46,7.27-16.99,16.58-17.08,9.51-.09,16.98,7.45,16.99,17.15Z"/>
      <path class="cls-1" d="M243.72,69.71c.05,7.62-6.13,13.99-13.69,14.15-7.71.16-14.22-6.33-14.19-14.12.03-7.71,6.12-13.99,13.69-14.12,7.77-.13,14.14,6.19,14.19,14.1Z"/>
    </g>
  </g>
</svg>