<?xml version="1.0" encoding="UTF-8"?>
<svg id="Layer_2" data-name="Layer 2" xmlns="http://www.w3.org/2000/svg" viewBox="0 0 286.8 286.8">
  <defs>
    <style>
      .cls-1 {
        fill: #000;
      }

      .cls-1, .cls-2 {
        stroke-width: 0px;
      }

      .cls-2 {
        fill: none;
      }
    </style>
  </defs>
  <g id="Layer_13" data-name="Layer 13">
    <rect class="cls-2" width="286.8" height="286.8"/>
  </g>
  <g id="Rogue">
    <path class="cls-1" d="M137.81,51.73c49.52.8,87.35,17.93,118.8,49.12,9.04,8.96,16.26,18.93,24.06,29.94,5.92,9.02,5.56,16.82.1,25.3-25.96,40.3-62.17,66.27-109.16,75.87-38.82,7.93-75.43.44-109.41-19.84-23.55-14.06-42.77-32.59-57.46-55.82-5.49-8.69-5.62-17.08-.01-25.74,24.72-38.17,58.94-63.36,103.08-74.4,11.27-2.82,23.09-3.45,30.01-4.43ZM80.74,87.96c-1.89.84-2.89,1.21-3.82,1.71-22.62,12.44-40.4,30.03-54.7,51.36-1.43,2.13-.82,3.47.39,5.24,11.54,16.99,25.45,31.68,42.42,43.3,36.22,24.8,75.53,31.86,117.61,18.71,34.35-10.73,60.2-33.04,80.41-62.35,1.38-2,1.1-3.37-.15-5.25-13.5-20.3-30.5-36.93-51.47-49.43-1.87-1.11-3.82-2.09-5.74-3.13,7.96,16.69,10.13,33.67,6.25,51.34-3.98,18.14-14.56,31.89-29.43,42.47-22.87,16.28-56.71,16.24-79.66,0-12.64-8.94-22.35-20.36-27.34-35.17-6.71-19.91-4.87-39.34,5.23-58.81ZM94.63,119.6c-.04.85-.13,1.69-.12,2.53.06,4.78,2.56,8,6.56,8.47,4.34.52,7.44-2.02,8.42-6.97.27-1.38.25-2.82.58-4.18.87-3.53,1.29-7.33,2.9-10.5,5.89-11.54,15.38-17.93,28.48-18.94,2.33-.18,5.42-1.06,6.61-2.73,1.41-1.97,2.03-5.4,1.37-7.74-1-3.53-4.4-4.74-8.13-4.76-23.7-.13-45.34,20.61-46.69,44.81Z"/>
  </g>
</svg>