<?xml version="1.0" encoding="UTF-8"?>
<svg id="Layer_2" data-name="Layer 2" xmlns="http://www.w3.org/2000/svg" viewBox="0 0 286.8 286.8">
  <defs>
    <style>
      .cls-1 {
        fill: #000;
      }

      .cls-1, .cls-2 {
        stroke-width: 0px;
      }

      .cls-2 {
        fill: none;
      }
    </style>
  </defs>
  <g id="Layer_13" data-name="Layer 13">
    <rect class="cls-2" width="286.8" height="286.8"/>
  </g>
  <g id="Wizard_troldmand" data-name="Wizard/troldmand">
    <g>
      <path class="cls-1" d="M279.92,41.51c4.5,4.51,4.51,11.79.03,16.31-12.71,12.83-37.08,37.42-48.52,48.86-57.34,57.33-114.68,114.66-172.02,171.98-8.89,8.89-14.08,8.02-23.63-2.54-8.25-9.13-16.84-17.98-26.13-26.05-7.74-6.71-8.28-13.32-1.57-20.03C81.72,156.41,155.37,82.79,229.03,9.18c6.38-6.38,12.08-6.41,18.44-.11,7.11,7.05,22.81,22.77,32.46,32.44ZM205.51,99.87c16.78-16.76,33.67-33.64,50.22-50.18-5.71-5.7-11.78-11.76-17.25-17.22-16.61,16.59-33.5,33.48-50.22,50.19,5.63,5.62,11.63,11.6,17.25,17.21Z"/>
      <path class="cls-1" d="M98.96,99.41c-3.26-10.63-6.28-20.17-9.06-29.78-.82-2.83-2.24-4.31-5.11-5.13-9.44-2.71-18.79-5.71-28.24-9.55,8.44-2.6,16.8-5.54,25.36-7.69,5.12-1.28,7.63-3.83,8.92-8.93,2.17-8.66,5.12-17.12,8.12-26.9,3.14,10.16,6.15,19.11,8.59,28.21,1.09,4.08,3.1,6.1,7.14,7.19,8.92,2.41,17.71,5.32,28.03,8.49-2.56.89-3.86,1.39-5.18,1.8-8.26,2.53-16.59,4.88-24.75,7.69-1.8.62-3.78,2.63-4.39,4.44-3.26,9.63-6.11,19.39-9.43,30.17Z"/>
      <path class="cls-1" d="M43.44,42.91c-.59-3.44-2.27-9.9-2.31-10.18-1.05-7.84-4.02-10.61-19.12-10.09,4.76-1.75,9.7-3.78,12.49-4.5,2.66-.69,4.13-2.03,4.79-4.83.94-4.03,2.4-7.93,3.95-12.87,1.56,4.99,2.55,9.15,4.21,13.03.77,1.81,2.59,3.66,4.39,4.43,3.64,1.57,7.59,2.41,11.59,4.43-3.81,1.24-7.58,2.65-11.45,3.66-2.73.71-4.11,2.14-4.78,4.87-.95,3.87-2.35,7.64-3.74,12.04Z"/>
      <path class="cls-1" d="M154.49,1.01c.51.78,1.36,5.71,1.38,5.85,1.39,9.04,1.77,11.86,19.46,13.29-7.22,2.34-9.51,3.2-13.67,5.4-2.48,1.31-2.25,1.78-3.44,4.92-.67,1.77-1.86,7.27-3.48,12.97-1.58-4.94-2.56-8.98-4.21-12.73-.8-1.81-2.59-3.65-4.38-4.46-3.69-1.65-6.67-3.19-11.45-4.53,3.91-1.19,7.87-2.34,11.63-3.9,1.69-.7,3.44-2.43,4.13-4.12,1.63-3.96,2.65-8.17,4.04-12.7Z"/>
      <path class="cls-1" d="M286.4,132.75c-2.69.43-3.52.82-5.88.96-8.85.53-11.67,4.16-12.57,12.05-.22,1.88-1.22,7.1-1.78,8.33-1.17-3.69-2.31-7.41-3.09-9.96-2.26-7.41-6.09-8.01-7.47-8.41-3.11-.91-5.74-1.63-9.51-3.18,3.71-1.12,7.44-2.16,11.13-3.31,4.78-1.49,5.26-3.79,6.12-6.85,1.11-3.96,1.4-6.1,2.94-10.98,1.37,4.47,2.23,7.95,2.94,11.55.81,4.11,0,4.78,6.65,6.55,1.61.43,6.12,1.88,10.52,3.25Z"/>
    </g>
  </g>
</svg>