<?xml version="1.0" encoding="UTF-8"?><svg id="Layer_1" xmlns="http://www.w3.org/2000/svg" viewBox="0 0 668.55 735.74"><defs><style>.cls-1{fill:#000;stroke-width:0px;}.cls-2{fill:none;stroke:#000;stroke-linecap:round;stroke-miterlimit:10;stroke-width:10px;}</style></defs><g id="halv_ork"><path class="cls-1" d="M430.45,544.63c3.09-1.17,5.46,2.92,3.02,5.22-48.46,45.82-171.65,46.53-248.98-21-31.48-27.49-55.48-61.81-69.54-99.91-3.05-8.27,8.15-14.1,12.69-6.61,0,0,0,0,0,0,14.39,31.37,42.52,78.21,97.73,113.15,63.7,40.24,130.82,37.21,205.07,9.14Z"/><path class="cls-1" d="M397.14,115.68c2.97,1.67,1.48,6.36-1.84,5.77-87.72-15.5-165.56,1.9-226.82,76.23-31.9,38.68-48.66,83.71-50.08,133.68-.34-.49-.61-.99-.95-1.48-1.69-2.61-4.12-4.66-6.83-5.58-2.25-.78-4.43-1.57-6.53-2.32-1.3-.46-2.11-1.79-1.99-3.22,3.59-42.5,17.8-84.23,43.26-120.38,59.45-84.13,178.71-123.78,251.77-82.7Z"/><path class="cls-1" d="M462.81,426.86c-9.94,4.24-35.96,21.81-43.8,25.62-9.46,4.59-27.24,12.71-32.17,14.82-13.86,5.93-26.9,10.02-52.92,10.3-20.98-.06-41.3-9.93-46.5-12.65-.83-.43-1.36-1.19-1.53-2.14-3.43-19.89-8.5-48.68-10.79-61.65-.46-2.62-3.68-3.41-5.23-1.3l-30,40.7c-.84,1.14-2.38,1.5-3.63.89-15.12-7.37-26.53-12.99-39.11-19.12-3.11-1.55-5.88,2.82-3.31,5.22,23.99,23.01,24.06,27.74,67.58,45.1,9.73,4.52,11.35,5.15,17.44,7.69,9.87,4.02,16.83,6.49,26.83,9.46,51.35,15.08,88.62-9.17,126.95-28.15.12-.06.22-.12.33-.19,8.39-5.71,27.4-19.57,35.06-27.78,4.26-7.41,1.15-9.39-5.2-6.85ZM259.53,452.26c-3.64-1.74-7.28-3.95-10.55-5.94-1.51-.92-1.95-2.95-.92-4.43,5.86-8.41,12.04-17.41,17.93-25.94,1.5-2.17,4.73-1.44,5.25,1.18,2.48,12.35,5.09,25.88,7.53,38.15.47,2.37-1.73,4.33-3.9,3.48-4.95-1.94-10.09-4.02-15.33-6.49Z"/><path class="cls-1" d="M546.87,406.88c0,.14-15.01,42.96-29.18,61.07,11.09-29.36,16.05-45.71,18.41-54.31.3-1.08,2.18-4.71,3.11-5.27,7.13-4.32,7.66-1.49,7.66-1.49Z"/><path class="cls-1" d="M538.63,331.67c-6.02-54.57-21.9-116.39-68.12-165.14-2.29-2.41.34-6.34,3.32-4.99,39.47,17.93,60.97,70.13,72.83,122.16,2.57,11.15,4.46,22.23,5.61,33.1.61,4.89-13.09,20.33-13.64,14.86Z"/><path class="cls-1" d="M221.02,292.86c-1.41-.43-2.96.26-3.54,1.67-2.06,5.05-3.28,10.89-3.45,17.56-.74,24.99,19.6,46.94,42.31,44.04,21.93-2.93,36.68-14.95,38.45-38.48.11-1.45-.82-2.82-2.16-3.23l-71.61-21.57Z"/><path class="cls-1" d="M425.91,580.24c-.66-3.06,2.93-5.1,5-2.83,9.09,9.96,12.65,21.98,27.45,23.38,11.72,1.11,85.62,1.43,96.16,1.59,15.81.24,30.27.97,43.12,3.12,64.31,10.76,72.05,36.06,70.78,75.64-.07,2.02-3.84,2.68-4.71.87-16.89-34.83-32.69-40.64-60.08-51.84-6.86-2.81-14.44-5.17-22.52-7.24-9.35-2.39-19.37-4.37-29.71-6.16-11.41-1.97-98.75-6.8-110.48-8.58-7.82-1.19-12.65-17-15.01-27.96Z"/><path class="cls-1" d="M276.29,569.11c1.07-2.57,5.16-.45,5.01,2.35-.63,11.23-4.73,28.14-15.88,30.18-13.31,2.44-113,13.87-126.22,16.32-44.09,8.17-82.5,19.6-80.68,55.92.16,3.2-3.78,4.52-5.44,1.84-24.12-38.88,3.66-65.36,67.07-73.87,15.16-2.03,95.74-8.23,114.75-8.13,12.82.07,34.35-7.7,41.4-24.62Z"/><path class="cls-1" d="M595.67,308.91c12.62,7.91,11.11,24.83,11.11,38.22,0,14.5-7.67,42.85-19.69,55.09-10.35,10.54-16.91,19.24-28.77,16.87-6.43-1.29-16.8-9.73-19.43-18.98,5.6,4.14,12.61,10.2,20.95,11.07,7.57.79,15.14-8.7,21.96-15.55,19.47-19.58,22.29-75.06,3.53-81.18-8.08-2.64-28.12,8.2-37.61,17.92-5.37,5.51-5.3,10.81-6.18,24.12-.75.22.88,22.67-1.01,31.89-4.04-14.89-5.05-29.79-4.29-42.44.02-.3,1.67-15.13,1.77-15.42,2.94-8.87,10.69-11.31,14.27-13.63,15.63-10.1,29.81-16.5,43.4-7.99Z"/><path class="cls-1" d="M123.2,372.03c-3.09-5.04-6.66-9.48-9.66-9.54-.65-.01-1.29.4-1.76.87-2.39,2.43-3.65,5.47-4,8.62-.27,2.74.09,5.61,1.01,8.05-.54-.98-4.56-7.95-5.58-10.31-.17-.39-.24-.81-.24-1.24-.09-5.17.46-8.72,1.33-11.18,1.85-5.03,5.42-5.64,9.32-5.82,2.69-.12,3.92-3.61,1.87-5.43-4.1-3.64-9.08-7.08-14.63-10.13-20.96-11.65-49.9-18.43-69.53-13.6-4.5,1.11-5.98,7.23-2.58,10.96,22.18,24.08,41.77,57.35,59.95,87.6,2.59,4.34,8.05,4.95,11.14,1.32,5.38-6.57,12.42-15.65,18.06-20.06.03.21.04.35.13.48-.96,9.17-4.44,15.13-8.81,19.93-16.1,17.8-21.33,15.24-32.13-8.84-7.11-15.9-14.1-29.25-25.01-45.48-12.09-18.13-13.26-18.19-21.75-28.27-5.07-6.14-12.88-11.4-16.13-18.22-1.58-3.34,19.68-9.39,36.73-9.31,10.89-.64,25.82,1.52,48.47,6.03,2.87.6,5.88,1.26,9.03,1.89,2.79.54,5.46,2.24,7.46,4.6.4.44.73.9,1.12,1.34,2.25,2.75,4.59,5.63,4.66,5.63,4.34,9.44,5.49,23.8,6.92,38.15.32,3.23-3.74,4.7-5.42,1.96Z"/><path class="cls-1" d="M110.09,406.46c-.07.28-.14.49-.2.71-.07-.14-.07-.28-.07-.49.07-.14.2-.14.27-.21Z"/><path class="cls-1" d="M422.37,278.35c6.25-1.58,12.82-1.84,19.15-.65,18.17,3.4,29.25,15.87,29.84,37.09.68,24.57-13.03,39.66-37.27,40.23-23.7.56-39-11.77-39.59-37.51-.5-21.74,9.7-34.56,27.87-39.16Z"/><line class="cls-2" x1="334.36" y1="107.39" x2="340.75" y2="688.34"/></g></svg>