<?xml version="1.0" encoding="UTF-8"?><svg id="Layer_1" xmlns="http://www.w3.org/2000/svg" viewBox="0 0 683.44 735.74"><defs><style>.cls-1{fill:#000;stroke-width:0px;}.cls-2{fill:none;stroke:#000;stroke-linecap:round;stroke-miterlimit:10;stroke-width:10px;}</style></defs><g id="halv_elver"><g id="elver"><path class="cls-1" d="M566.21,327.97c-.27-13.2-1.12-53.47-1.39-54.77-11.85-59.18-42.11-99.35-89.03-136.83-46.6-34.96-96.24-48.63-159.83-43.92-88.73,6.57-195.69,67.82-216.3,195.09-25.93-6.62-52.59-21.94-78.7-28.6,19.72,21.48,35.79,46.49,56.29,67.22,7.19,7.28,14.55,15.56,21.92,24.15.58.68,1.17,1.36,1.75,2.05,27.44,32.12,54.97,67.67,75.22,70.37,0,0-5.59,13.63-3.5,30.5,1.03,8.34,4.62,16.11,9.8,22.72,26.87,34.22-11.59,66.53-3.61,115.42,2.44,14.94,8.22,30.27,12.28,48.36,1.09,4.86,2.05,9.91,2.79,15.21,1.92,13.66,2.36,28.94-.36,46.64,0,0,6.82-26,7.16-48.98.09-5.63-.21-11.07-1.11-15.91-.8-4.42-2.1-8.33-4.03-11.41-14.04-22.41-4.24-62.92,7.92-90.82,2.71-6.23,11.95-19.72.6-45.26-13.76-30.95-18.82-65.43-13.3-92.47,2.28-11.14,1.94-30.02.75-48.54,2.25-63.86,59.78-126.7,141.52-132.03,5.07-.33,10.23-.44,15.47-.32,78.77,3.72,134.82,82.69,154.01,154.05,2.08,7.73,3.73,15.37,4.93,22.81.35,2.18-.06-17.41-1.57-23.81-5.55-23.59,39.67-43.36,60.41-36.78,0,0-.03-1.55-.09-4.14ZM163.23,406.65c-33.69-32.17-86.15-92.65-121.53-135.54,119.21,53.18,142.51,52.58,137.13,138.32-.33,5.3-11.76.88-15.6-2.78ZM198.69,507.85c1.35-6.7-2.69-18.88-2.68-20,.82.74,5.23,4.93,8.51,11.2,2.88,5.5,2.24,20.61.45,24.65-5.88,13.23-7.35,15.68-11.5,28.98-6.72,21.51-8.37,36-8.22,48.55-.68-2.94-6.57-18.22-3.14-38.09,1.01-5.86,3.62-10.43,8.06-21.96,5.01-12.99,6.54-19.36,7.17-22.7,1.02-5.32,1.34-10.63,1.34-10.63ZM199.15,484.42c-9.56-11.8-15.54-6.12-23.15-28.83-4.43-13.2,7.02-37.94,9.56-46.61-1.49,33.76,8.67,62.89,13.59,75.44ZM504.75,348.3c-.63.73-1.26,1.48-1.89,2.27,0,0-8.42-19.44-9.67-23-26.18-74-79.83-120.46-158.71-119.5-.51.02-1.02.04-1.54.06-66.81,3.13-140.15,65.03-150.22,138.26-9.27-21.51-39.12-35.75-54.22-46.09-24.23-16.59-25.55-2.9-16.5-34.87,26.75-94.49,114.26-161.37,219.39-164.5,1.82-.06,3.65-.09,5.48-.11,102.95-.93,205.13,69.33,221.08,183.2,4.16,25.11,1.42,34.27-5.46,38.82-9.99,6.62-28.75,3.46-47.74,25.46Z"/><path class="cls-1" d="M222.16,473.67c30.91,37.79,62.04,68.81,90.06,85.44,16.97,10.07,25.08,9.73,51.24,5.98,95-13.64,145.2-102.47,152.07-134.74,1.58,62.02-59.17,133.46-176.19,150.22-19.24,2.76-92.61-48.18-117.17-106.89Z"/><path class="cls-1" d="M96.75,678.88v-255.76c1.58-72.41,3.51-129.87,6.71,0,0,85.37-1.97,171.52-1.97,256.89-1.18,35.32-3.87,22.4-4.74-1.14Z"/><path class="cls-1" d="M390.68,561.88c5.61,15.67,11.77,68.13,18.94,71.02,8.42,3.4,44.95,7.87,51.68,9.11,15.39,2.84,32.66,5.12,43.92,11.5,5.27,2.99,30.28,29.21,38.54,70.51,3.19,15.93-4.68,15.24-11.35.3-6.61-14.78-7.97-26.44-14.94-40.03-3.51-6.85-10.29-16.61-15.54-20.91-6.07-4.97-22.71-8.51-44.22-13.59-8.24-1.95-48.6-5.87-56.21-9.57-7.14-3.48-10.44-67.3-10.83-78.33Z"/><path class="cls-1" d="M285.14,549.98c.97,16.7-.87,73.65-10.83,79.15-14.38,7.94-38.93,12.09-76.38,24.39-1.74.57-5.12,1.69-9.37,3.66-4.71,2.18-18.51,9.51-29.7,22.69-6.61,7.79-12.18,17.64-16.51,31.08-3.04,9.42-18.33,22.35-15.8,12.77,11.6-43.93,21.39-59.63,51.68-71.85,10.5-4.23,64.51-22.99,82.9-27.63,10.1-2.55,17.82-50.44,24.01-74.25Z"/></g><path class="cls-1" d="M564.84,327.06c13.18,7.91,11.6,24.83,11.6,38.22,0,14.5-8.01,42.85-20.56,55.09-10.81,10.54-17.66,19.24-30.05,16.87-6.71-1.29-17.54-9.73-20.3-18.98,5.85,4.14,13.17,10.2,21.88,11.07,7.91.79,15.82-8.7,22.93-15.55,20.33-19.58,23.28-75.06,3.69-81.18-8.43-2.64-29.37,8.2-39.27,17.92-5.61,5.51-5.54,10.81-6.46,24.12-.78.22.92,22.67-1.05,31.89-4.22-14.89-5.27-29.79-4.48-42.44.02-.3,1.75-15.13,1.85-15.42,3.08-8.87,10.91-12.97,14.65-15.28,16.33-10.1,31.39-14.84,45.58-6.33Z"/><line class="cls-2" x1="331.35" y1="97.98" x2="340.39" y2="726.06"/><path class="cls-1" d="M406.13,307.68c6.53-1.58,13.39-1.84,20-.65,18.98,3.4,30.55,15.87,31.16,37.09.71,24.57-13.61,39.66-38.92,40.23-24.75.56-40.73-11.77-41.35-37.51-.52-21.74,10.13-34.56,29.11-39.16Z"/><path class="cls-1" d="M254.96,308.87c6.66-.81,13.37-1.72,20-.65,21.74,3.51,30.38,28.49,29.06,38.32-5.08,37.62-13.15,38.24-36.82,39s-40.73-11.77-41.35-37.51c-.52-21.74-6.68-34.8,29.11-39.16Z"/></g></svg>