<?xml version="1.0" encoding="UTF-8"?><svg id="Layer_1" xmlns="http://www.w3.org/2000/svg" viewBox="0 0 654.41 716.83"><defs><style>.cls-1{fill:#000;stroke-width:0px;}</style></defs><g id="hobbit"><path class="cls-1" d="M179.88,360.62c-16.74-40.75-47.54-78.2-83.42-94.35-32.2-14.5-34.67-12.33-44.93-18.98-21.97-14.23-26.71-3.95-16.97,12.65,28.81,49.14,63.32,99.72,57,149.28-.4,3.16,9.11,6.27,11.98,5.27,7.05-2.45,20.88-9.42,31.71-13.19,2.86-1,5.98.5,7.14,3.44l.53,1.35c1.19,3.02-.09,6.48-2.9,7.86-16.28,8.04-29.42,13.84-46.46,19.17-4.04,1.26-13.5-6.92-13.98-29.17-1.07-49.65-12.02-65.14-35.28-105.79-14.48-25.3-16.48-18.98-22.22-39.01-3.25-11.33-6.49-21.94,1.5-27.68,6.24-4.48,21.4,5.81,30.04,8,15.3,3.87,32.56,10.47,49.34,17.31,14.13,5.76,14.23,1.85,19.03-15.65,27.32-99.54,110.39-170.34,191.17-160.73,103.26,12.29,161.67,68.83,198.96,166.53,9.7,25.41,1.46,17.24,22.73,9.29,17.77-6.64,33.32-13.73,49.63-18.14,10.54-2.85,29.66-7.25,35.4-.32,5.23,6.32-3.95,18.43-10.44,27.73-13.23,18.98-16.48,27.94-25.71,50.61-10.49,25.75-15.94,44.37-16.56,73.45-.63,29.6-11.27,33.59-36.61,29.52-15.31-2.46-15.31-3.51-28.87-10.97-2.69-1.48-3.58-5.11-2.21-7.97l.11-.24c1.33-2.79,4.45-4.06,7.22-2.95l24.78,9.98c10.61,4.28,22.12-3.11,23.58-15.01,5.81-47.39,21.43-97.13,48.53-136.97,12.73-18.71-4.38-11.07-12.23-8.7-33.2,10.02-102.45,38.31-125.84,97.27-2.24,5.64-10.2,4.57-10.99-1.49-.4-3.08-.75-6.16-.99-9.25-3.69-46.36-16.04-62.41-58.21-66.14-47.43-4.2-95.76,1.79-142.69-6.56-18.48-3.29-19.73,13.85-29.21,39.41-10.51,28.32-19.92,35.1-33.28,61.61-2.27,4.51-8.43,4.21-10.36-.47ZM469.84,299.39l3.06.87c2.56.73,4.57-1.07,6.55-2.93,21.16-19.98,27.65-18.93,21.41-45.81-19.7-84.96-112.63-154.44-199-155.4-79.17-.88-141.1,54.34-171.16,146.07-4.52,13.81-8.02,16.44,2.72,27.52,16.08,16.59,32.59,32.85,50.84,50.16,2.83,2.68,6.65,8.28,9.07,5.19,13.75-17.55,24.71-38.22,29.56-68.5.52-3.25.32-6.54-2.42-8.12-17.97-10.38-33.44-19.32-48.68-28.12-2.67-1.54-3.74-5-2.46-7.91h0c.98-2.23,3.12-3.6,5.45-3.52,4.01.13,9.92,3.19,12.81,5.47,44.18,34.98,120.33,42.18,188.42,34.55,37.58-1.91,73.76,3.27,90.01,46.83.67,1.78,2.08,3.17,3.83,3.67Z"/><path class="cls-1" d="M151.92,398.58c35.03,73.63,84.67,128.13,170.55,127.15,83.75-.95,131.73-55.9,163.3-135.64,7.72,41.33-16.91,86.82-59.37,117.49-58.58,42.32-121.97,47.82-186.29,15.85-50.52-25.11-81.55-66.85-88.19-124.86Z"/><path class="cls-1" d="M298.9,366.95c.16,1.22.19,2.52.07,3.74-2.47,25.94-17.68,40.36-42.25,40.31-25.51-.05-41.18-15.64-40.53-42.32.61-24.81,15.08-38.62,39.77-39.25,25.9-.66,39.67,13.31,42.93,37.51Z"/><path class="cls-1" d="M427.53,367.48c.16,1.22.19,2.52.07,3.74-2.47,25.94-17.68,40.36-42.25,40.31-25.51-.05-41.18-15.64-40.53-42.32.61-24.81,15.08-38.62,39.77-39.25,25.9-.66,39.67,13.31,42.93,37.51Z"/><path class="cls-1" d="M357.98,548.01c3.82,6.68,11.32,27.93,16.52,27.41,5.2-.52,36.45.67,41.11.81,6.99.21,13.37,1.15,19.07,2.77,28.5,8.11,40.44,33.32,30.5,70.34-10.05-18.47-15.19-38.03-27.85-48.43-3.03-2.49-6.39-4.59-9.96-6.43-4.14-2.12-8.57-3.88-13.14-5.47-5.05-1.75-43.67-6.04-48.86-7.62-4.87-1.48-7.12-28.69-7.38-33.39Z"/><path class="cls-1" d="M286.29,543.09c.66,7.12-.6,31.4-7.38,33.74-6.28,2.17-53.34,12.32-59.58,14.49-22.96,8-42.66,19.53-37.2,60.37-16.96-39.48-4.29-66.48,28.2-74.68,7.15-1.8,45.19-7.31,54.16-7.22,7.1.07,17.57-16.56,21.79-26.71Z"/><path class="cls-1" d="M383.51,450.14c3.48-.2,5.22,4.13,2.55,6.38-14.28,11.98-37.53,30.22-65.67,29.64-20.08-.42-41.24-20.16-52.78-33.51-2.4-2.78.12-6.99,3.73-6.33,23.92,4.35,93.58,4.93,112.18,3.83Z"/></g></svg>