<?xml version="1.0" encoding="UTF-8"?><svg id="Layer_1" xmlns="http://www.w3.org/2000/svg" viewBox="0 0 654.78 716.83"><defs><style>.cls-1{fill:#000;stroke-width:0px;}</style></defs><g id="Menneske"><path class="cls-1" d="M319.77,271.29c.41,2.2.5,4.53.28,6.76-2.3,23.73-15.27,36.8-39.29,37.42-24.77.63-40.8-11.76-41.39-37.43-.58-25.15,13.45-39.57,38.82-40.33,23.99-.71,37.51,11.59,41.58,33.58Z"/><path class="cls-1" d="M397.92,237.32c24.91.44,40.53,13.28,41.25,38.04.71,24.57-13.61,39.66-38.92,40.23-24.75.56-40.73-11.77-41.35-37.51-.6-25.28,13.88-38.49,39.02-40.76Z"/><path class="cls-1" d="M258.15,406.97c-1.57-1.92.37-4.71,2.72-3.93,52.85,17.61,50.25,18.27,79.51,18.61,16.59.19,56.21-10,74.17-14.87,2.3-.62,3.86,2.36,2.01,3.86-16.52,13.4-42.16,26.26-59.68,29.44-33.8,6.14-74.84-3.93-98.72-33.12Z"/><path class="cls-1" d="M383.51,556.86c5.64,7.52,16.71,31.46,24.38,30.87,7.68-.59,53.8.76,60.68.91,10.32.24,19.73,1.29,28.16,3.12,42.08,9.13,59.7,37.53,45.02,79.22-14.84-20.8-22.42-42.83-41.11-54.55-4.48-2.81-9.43-5.17-14.7-7.24-6.1-2.39-12.65-4.37-19.4-6.16-7.45-1.97-64.47-6.8-72.13-8.58-7.18-1.67-10.51-32.31-10.9-37.6Z"/><path class="cls-1" d="M277.67,551.32c.97,8.02-.88,35.36-10.9,38-9.27,2.44-78.74,13.87-87.95,16.32-33.89,9.01-62.97,22-54.91,68-25.04-44.46-6.33-74.87,41.63-84.1,10.56-2.03,66.72-8.23,79.96-8.13,10.48.08,25.94-18.65,32.17-30.08Z"/><path class="cls-1" d="M617.28,247.96c-13.18-9.41-34.22,1.13-52.49,2.19-2.04.14-4.15-.71-7.91-1.34-6.79-19.06-13.98-38.19-23.08-55.83,0-.07,0-.14-.07-.21-5.6-12.42-15.96-37.9-13.06-50.04,3.96-16.38,28.09-22.66,30.2-25.69-.07,0-14.44-5.44-14.51-5.44-.13-.05-10.97-4.11-18.29-6.85-2.88-1.08-3.98-4.93-2.02-7.43,2.91-3.7,6.19-9.05,8.24-16.14,2.97-10.3,1.78-19.06.99-23.15-.79,1.84-8.97,20.26-26.57,23.15-4.41.73-8.36.34-11.57-.4-2.7-.62-4.14-3.73-3.08-6.45,3.23-8.27,7.96-25.25.86-42.7-3.89-9.46-9.83-15.53-13.85-18.92,5.87,21.39,2.77,41.71-8.84,51.6-9.1,7.76-25.32,10.73-29.54,4.23-.74-1.15-1.06-2.53-1.09-4-.08-3.54-3.57-5.86-6.45-4.14-12.5,7.48-25.99,6.68-32.88-.26-9.43-9.6-5.01-29.64,1.98-41.15,9.03-14.75,24.13-18.28,27.63-18.99-7.72.35-18.73,1.84-30.53,7.41-39.37,18.49-50.84,64.94-62.12,61.12-7.85-2.61-6.92-26.89-6.86-28.45.12-3.02.47-5.86.99-8.5.9-4.61-4.1-7.79-7.28-4.54-13.92,14.22-27.87,28.47-41.82,42.72-2.76,2.82-7.34.85-7.51-3.23,0-.08,0-.16,0-.24-.18-4.36-5.29-6.16-7.86-2.77-7.98,10.51-17.25,18.39-27.11,17.64-22.42-1.55-36-46.51-41.41-44.26-6.4,2.68,15.76,64.3,3.96,71.71-11.54,7.27-48.4-41.71-54.2-36.91-5.8,4.87,30.07,56.75,21.7,65.36-3.58,3.72-14.52-1.42-28.32-10.67-3.88-2.6-8.44,2.1-6.2,6.37,10.86,20.71,14.83,32.33,11.84,34.86-2.31,2.06-8.84-1.5-19.61-10.63-3.58-3.03-8.62.99-6.88,5.51,6.2,16.11,12.4,32.25,18.65,48.39.13-.21.2-.42.33-.64-2.66,6.01-5.17,12.12-7.48,18.4-1.69,4.59-5.46,7.92-10.01,8.76-23,4.24-42.93,3.48-53,13.85-31.52,32.4-11.34,100.23,31.92,108.98,19.98,4.02,26.71,13.9,32.84,31.69,32.71,95.85,116.39,159.16,208.91,159.38,96.21.21,181.08-61.62,213.46-157.82,6.99-20.82,13.52-30.77,37.13-33.67,16.22-1.98,38.97-22.94,42.86-39.67,5.21-22.38,7.48-59.05-10.95-72.21ZM112.96,339.01c0,2.68-1.12,5.15-3.1,6.85l-1.58,1.41c-2.77,2.33-12.72-1.11-9.56.64,4.96,2.75-24.63-13.09-30.6-25.97-8.37-18.09-5.78-44.9,3.76-63.52,1.25-2.44,14.9-7.13,19.32-4.31,8.57,5.29,19.52,14.47,20.77,23.43,2.84,20.12,1.25,40.87.99,61.48ZM501.82,453.21c-61.85,80.89-163.87,106.37-253.28,63.31-86.38-41.5-135.51-141.66-119.49-243.3,10.88-69.1,45.04-121.9,100.56-157.75,24.14-15.6,49.19-25.2,75.04-29.86h.33c9.17-1.06,18-1.76,26.25-2.33,54.14-3.95,128.13,27.88,141.05,38.33,7.07,5.73,14.66,13.5,22.05,21.9,4.72,5.37,8.52,11.57,11.3,18.31,4.96,12.01,11.25,26.1,15.05,33.97,48.6,99.45,37.72,183.44-18.86,257.42ZM610.43,328.21c-3.17,9.25-18.93,13.55-33.04,19.2-4.75,1.91-9.96-1.06-11.14-6.28-11.54-51.88-6.26-72.98,18.79-83.71,7.65-3.25,25.61,2.09,26.77,4.23,10.02,18.54,5.47,46.66-1.38,66.56Z"/></g></svg>