<?xml version="1.0" encoding="UTF-8"?><svg id="Layer_1" xmlns="http://www.w3.org/2000/svg" viewBox="0 0 654.78 716.83"><defs><style>.cls-1{fill:#000;stroke-width:0px;}</style></defs><g id="Tiefling"><path class="cls-1" d="M197.17,274.53c-41.33,103.3-27.07,188.76,66.35,247.95,62.76,39.77,130.92,38.59,192.59-2.88,90.4-60.8,100.84-145.95,60.42-246.28,58.16,49.21,46.61,165.83-16.68,230.51-78.65,80.38-206.89,80.02-286.11-.81-60.67-61.9-72.67-180.18-16.57-228.49Z"/><path class="cls-1" d="M159.61,35.15c-43.85,45.29-69.99,93.28-48.76,152.22,21.72,60.3,82.95,82.37,154.56,100.65-59.24,12.59-137.97-31.69-165.92-86.91-30.78-60.83,1.32-144.07,60.11-165.95Z"/><path class="cls-1" d="M550.08,32.61c50.59,17.64,70.18,105.82,37.53,167.83-30.61,58.14-102.83,93.61-160.8,75.51,58.08-10.22,116.04-20.57,148.12-78.66,31.86-57.7,19.51-128.55-24.85-164.68Z"/><path class="cls-1" d="M254.3,225.38c-17.73-7.19-35.64-14.45-54.66-22.17-12.07,8.39-25,17.38-37.92,26.37.93-23.05,40.51-43.73-.88-72.84-8.29,4.58-17.97,18.26-35.5,27.97,14.83-24.71,25.38-42.28,38.46-64.07,13.23,50.38,54.06,80.64,110.41,99.73,44.93,13.57,36.36,4.78,3.54,9.01-8,1.03-16.17-1.05-23.44-3.99Z"/><path class="cls-1" d="M147.2,112.25c-14.98,1.51-17.14,3.48-33.19,5.09,29.48-17.71,34.84-18.43,33.37-54.79-1.35-4.73,3.11-2.97-13.51-3.14,17.93-11.87,0,0,24.04-16.23-10.38,49.78.82,62.89,10.41,90.94-15.35,9.39-8.86-4.61-21.12-21.88Z"/><path class="cls-1" d="M99.98,295.15c31.97,52.26-64.8,134.75-55.53,200.34,8.94,71.82,90.08,140.27,116.22,140.78-7.13,55.24-114.15-61.02-129.48-127.18-16.88-72.88,71.33-125.32,68.78-213.93Z"/><path class="cls-1" d="M183.09,559.17s-3.65,11.52-11.04,21.78c-6.4,8.9-25.28,19.58-24.45,18.44,27.93-38.38,21.56-47.9-12.73-73.6-12.88,7.5-25.13,25.53-44.06,27.4,17.92-11.54,46.27-42.58,13.33-81.63-8.62,3.83-27,20.69-44.48,8.84,25.47-1.5,37.82-26.44,54.26-48.77,2.52,57.91,42.56,95.38,90.8,125.42.89.55,1.87,1.06,2.84,1.46,84.68,35.75,74.78,30.71,37.34,21.94-4.94-1.16-41.4,25.48-38.88,22.45,17.83-21.44,9.25-30.54-22.92-43.72Z"/><path class="cls-1" d="M101.61,432.16c-14.79,3.01-20.22,2.51-32.78-6.5,22.92,1.5,36.92-8.16,42.62-49.06-.34-5.51,3.48-2.84-11.98-5.63,21.32-3.88,16.23-44.44,2.48-71.97,30.83,41.55,12.62,129.34,15.12,160.95-16.14,8.1-7.36-6.54-15.44-27.78Z"/><path class="cls-1" d="M557.89,119.38c12.49,4.32,13.91,6.79,27.29,11.42-21.34-24.06-26.96-29.06-21.6-67.33,0,0,.11-1.31,17.33,2.57-18.25-13.81-10.43-6.83-20.73-16.21-1.42-1.29-6.36-13.92-8.57-15.96,13.83,52.98-2.24,76.9-16.62,104.76,15.32,9.62,8.6-3.25,22.9-19.25Z"/><path class="cls-1" d="M520.88,229.58c-8.21-11.51-16.41-23.02-24.4-34.24-17.42,4.46-34.29,7.81-50.81,11.66-7.4,1.73-15.15,1.45-22.36-.96-31.32-10.51-13.5-2.33,5.25-5.99,54.64-8.28,95.28-35.07,117.91-83.72,5.77,24.7,10.6,45.38,16.86,72.22-11.23-11.6-16.38-32.01-23.51-39.37-41.07,27.26-14.15,55.62-18.94,80.4Z"/><path class="cls-1" d="M440.65,321.25c16.37,11.5,22.22,33.74,11.65,50.57-6.31,10.04-16.27,14.51-29.5,15.08-22.92.99-36.27-12.6-37.75-34.62-1.58-23.5,11.34-42.21,34.67-40.07,7.38.68,14.46,4.5,20.93,9.04Z"/><path class="cls-1" d="M292.74,387.83c-25.14-2.63-41.57-17.28-35.94-39.46,3.69-14.53,21.6-33.51,35.56-35.71,20.84-3.28,38.48,12.35,38.09,37.04-.38,23.95-14.61,36.04-37.71,38.13Z"/><path class="cls-1" d="M290.51,437.4c49.8,10.92,83.99,9.72,131.04-2.85,4.41-1.18,9.09,1.9,6.37,5.51-35.46,46.92-109.6,47.59-140.2,1.87-1.35-2.01.41-5.05,2.8-4.53Z"/><path class="cls-1" d="M405.93,550.12c5.45,8.97,16.14,37.54,23.56,36.84,7.42-.7,51.98.9,58.63,1.09,9.97.28,19.06,1.54,27.2,3.72,40.65,10.89,57.68,44.78,43.5,94.53-14.34-24.82-21.66-51.11-39.72-65.09-4.33-3.35-9.11-6.17-14.21-8.63-5.9-2.85-12.22-5.21-18.74-7.35-7.2-2.35-62.29-8.12-69.69-10.24-6.94-1.99-10.15-38.55-10.53-44.87Z"/><path class="cls-1" d="M303.67,543.51c.94,9.56-.85,42.19-10.53,45.34-8.96,2.92-76.08,16.56-84.98,19.48-32.75,10.75-60.84,26.25-53.05,81.14-24.19-53.05-4.78-84.73,41.56-95.75,10.2-2.43,60.27-11.35,75.92-14.31,9.95-1.88,25.06-22.26,31.08-35.9Z"/><path class="cls-1" d="M441.66,207.37c-5.09-1.5-67.49-36.8-128.61-15.27-30.91,10.89-28.66,12.07-50.56,29.85-.01-.39-7.8.97-14.01-.75,18.84-21.19,33.24-27.93,56.16-36.36,62.65-23.03,129.37,3.5,137.01,22.53Z"/></g></svg>