<?xml version="1.0" encoding="UTF-8"?>
<svg id="Layer_2" data-name="Layer 2" xmlns="http://www.w3.org/2000/svg" viewBox="0 0 286.8 286.8">
  <defs>
    <style>
      .cls-1 {
        fill: #000;
      }

      .cls-1, .cls-2 {
        stroke-width: 0px;
      }

      .cls-2 {
        fill: none;
      }
    </style>
  </defs>
  <g id="Layer_13" data-name="Layer 13">
    <rect class="cls-2" width="286.8" height="286.8"/>
    <g id="Cleric">
      <path class="cls-1" d="M284.33,143.16c-.1,78.15-63.03,140.93-141.14,140.8-78.06-.12-141.05-63.33-140.73-141.23C2.8,64.28,65.4,1.82,143.6,1.93c78.12.11,140.84,63.05,140.73,141.22ZM119.87,166.46c0,2.64,0,4.42,0,6.19,0,13.21-.12,26.43.07,39.64.12,8.54,4.69,12.83,13.2,12.91,6.36.06,12.72.03,19.09.01,10.47-.02,14.63-4.04,14.7-14.41.08-11.74.02-23.49.02-35.24,0-2.87,0-5.74,0-9.11,2.51,0,4.27,0,6.02,0,13.05,0,26.1.04,39.15-.01,8.85-.03,13.31-4.29,13.53-13.09.17-6.85.12-13.7.01-20.55-.15-9.02-4.62-13.33-13.79-13.36-13.05-.04-26.1-.01-39.15-.01-1.74,0-3.48,0-5.77,0,0-2.58,0-4.5,0-6.42,0-12.23.02-24.47-.01-36.7-.03-11.78-3.87-15.62-15.48-15.63-5.71,0-11.42-.02-17.13,0-10.1.03-14.39,4.19-14.44,14.2-.07,12.89-.29,25.58-.33,38.46,0,1.87.05,3.93-.1,6.1-2.35,0-4.12,0-5.9,0-13.21,0-26.43-.07-39.64.03-7.89.06-12.56,4.6-12.75,12.39-.17,7.34-.21,14.69,0,22.02.25,8.22,4.8,12.51,13.03,12.57,9.62.08,19.25.02,28.87.02,5.35,0,10.69,0,16.77,0Z"/>
    </g>
  </g>
</svg>