<?xml version="1.0" encoding="UTF-8"?>
<svg id="Layer_2" data-name="Layer 2" xmlns="http://www.w3.org/2000/svg" viewBox="0 0 286.8 286.8">
  <defs>
    <style>
      .cls-1 {
        fill: #000;
      }

      .cls-1, .cls-2 {
        stroke-width: 0px;
      }

      .cls-2 {
        fill: none;
      }
    </style>
  </defs>
  <g id="Layer_13" data-name="Layer 13">
    <rect class="cls-2" width="286.8" height="286.8"/>
  </g>
  <g id="Druid">
    <path class="cls-1" d="M118.55,247.64c-12.14-.34-32.63-3.61-51.47-14.04-3.33-1.84-6.94-3.17-10.41-4.75-3.91-1.78-7.21-1.01-9.68,2.51-2.52,3.58-4.79,7.34-7.35,10.9-3.38,4.69-6.52,9.65-10.51,13.77-6.24,6.42-16.43,5.3-21.79-1.97-1.92-2.61-3.58-5.44-5.11-8.3-2.04-3.83-1.75-7.98.61-11.32,3.23-4.57,6.93-8.91,10.95-12.81,4.97-4.81,10.54-8.99,15.7-13.61,2.46-2.2,3.55-4.9,2.1-8.37-9-21.51-6.13-42.74,2.47-63.45,10.56-25.44,30.74-41.75,53.95-55,19.63-11.21,41.06-14.59,63.23-15.33,17.96-.6,35.92-1.27,53.83-2.66,6.94-.54,13.92-2.61,20.49-5.06,4.34-1.62,8.15-4.92,11.87-7.87,3.98-3.15,7.24-7.3,11.43-10.08,9.47-6.29,19.75-5.92,26.16,5.71,5.03,9.13,7.27,19.02,8.85,29.05,6.54,41.63-2.76,79.32-29.53,112.08-15.94,19.5-36.46,33.36-58.94,44.32-21.38,10.42-43.85,16.62-76.84,16.3ZM188.65,117.58c-.04-.24-20.6,1.91-30.65,4.07-29.35,6.29-54,21.26-75.3,42.05-6.18,6.03-12.24,12.19-18.08,18.55-3.88,4.22-3.58,9.92.15,13.84,3.78,3.97,9.19,4.37,13.8.88,1.8-1.36,3.46-2.92,5.09-4.49,7.04-6.77,13.8-13.85,21.1-20.32,13.32-11.81,27.88-21.68,45.03-27.32,14.41-4.74,29.22-6.48,44.3-6.71,6.44-.1,10.92-4.68,10.78-10.63-.14-5.68-4.78-9.82-11.1-9.91-1.7-.02-3.4,0-5.1,0Z"/>
  </g>
</svg>