<?xml version="1.0" encoding="UTF-8"?>
<svg id="Layer_2" data-name="Layer 2" xmlns="http://www.w3.org/2000/svg" viewBox="0 0 286.8 286.8">
  <defs>
    <style>
      .cls-1 {
        fill: #000;
      }

      .cls-1, .cls-2 {
        stroke-width: 0px;
      }

      .cls-2 {
        fill: none;
      }
    </style>
  </defs>
  <g id="Layer_13" data-name="Layer 13">
    <rect class="cls-2" width="286.8" height="286.8"/>
  </g>
  <g id="Fighter">
    <g>
      <path class="cls-1" d="M172.21,203.74c3.22-4.91,6.47-9.29,9.09-14.01,2.58-4.65,6.75-7.17,10.96-9.85,3.62-2.3,7.18-4.72,10.99-7.24-2.3-2.6-4.25-4.9-6.29-7.12-4.94-5.35-9.98-10.62-14.88-16.01-8.42-9.28-16.73-18.65-25.15-27.93-6.31-6.96-12.72-13.83-19.09-20.75-8.56-9.3-17.14-18.57-25.66-27.9-6.83-7.48-13.58-15.04-20.38-22.56-6.85-7.59-13.88-15.03-20.51-22.81-3.11-3.64-7.15-5-11.33-6.4C43.54,15.69,27.11,10.21,10.69,4.74c-2.85-.95-5.71-1.88-9.37-3.09.78,2.52,1.32,4.37,1.93,6.2,5.09,15.29,10.18,30.58,15.28,45.87,1.43,4.28,2.83,8.57,4.38,12.81.39,1.07,1.19,2.11,2.04,2.89,7.47,6.84,15.01,13.62,22.51,20.43,4.71,4.28,9.39,8.59,14.09,12.88,9.88,9,19.77,17.98,29.64,26.98,4.84,4.41,9.62,8.89,14.46,13.29,9.89,8.98,19.82,17.92,29.69,26.92,7.01,6.39,13.94,12.88,20.93,19.29,5.15,4.73,10.33,9.42,15.93,14.51Z"/>
      <path class="cls-1" d="M227.7,199.57c1.74-1.43,20.28-19.43,27.95-26.92,1.83-1.79,1.86-2.97,0-4.71-3.64-3.4-7.14-6.97-10.61-10.55-1.18-1.22-2.15-1.4-3.57-.4-16.09,11.38-32.39,22.48-48.2,34.23-3.96,2.95-6.5,7.89-9.47,12.07-9.02,12.68-17.92,25.46-26.93,38.16-1.17,1.65-1.23,2.77.32,4.24,3.63,3.42,7.16,6.95,10.58,10.58,1.62,1.71,2.71,1.54,4.29-.06,8.3-8.42,16.69-16.76,25.05-25.12.83-.83,1.71-1.63,2.68-2.55,7.45,5.87,14.75,11.61,22.03,17.37,6.65,5.25,13.23,10.58,19.95,15.74,1.71,1.31,2.6,2.69,2.53,4.85-.31,10.04,9.52,19.77,20.03,19.96,10.81.2,19.05-6.54,21.2-15.72,2.2-9.38-.96-19.43-12-24.35-2.37-1.05-5.19-1.05-7.74-1.75-1.42-.39-3.17-.85-4.01-1.89-10.14-12.64-20.14-25.4-30.18-38.13-1.08-1.37-2.13-2.76-3.9-5.06Z"/>
    </g>
  </g>
</svg>