<?xml version="1.0" encoding="UTF-8"?>
<svg id="Layer_2" data-name="Layer 2" xmlns="http://www.w3.org/2000/svg" viewBox="0 0 286.8 286.8">
  <defs>
    <style>
      .cls-1 {
        fill: #000;
      }

      .cls-1, .cls-2 {
        stroke-width: 0px;
      }

      .cls-2 {
        fill: none;
      }
    </style>
  </defs>
  <g id="Layer_13" data-name="Layer 13">
    <rect class="cls-2" width="286.8" height="286.8"/>
  </g>
  <g id="Ranger">
    <g>
      <path class="cls-1" d="M242.18,250.37c0,.07.01.13.01.2.26,14.92-7.5,23.11-23.04,25.29-12.6,1.76-24.54-.24-36.35-4.26-5.04-1.71-10.18-3.18-15.11-5.17-16.34-6.59-32.55-5.98-49.05-.33-13.06,4.47-26.08,9.82-40.14,9.93-5.5.05-11.19-.55-16.59-1.85-9.23-2.22-16.07-10.12-16.83-19.59s1.51-19.27,5.68-28.12c15.35-32.6,38.65-57.38,72.22-71.56,15.81-6.67,31.7-5.51,46.79,2.25,31.18,16.04,53.97,40.15,67.86,72.45,1.31,3.05,2.28,6.31,2.97,9.57.78,3.67,1.07,7.45,1.57,11.18Z"/>
      <path class="cls-1" d="M228.13,46.96c.78,3.92.98,7.94.56,11.92-1.94,18.64-7.92,32.98-19.96,44.79-12.25,12.01-29.89,14.04-41.41,4.49-7.7-6.38-12.22-14.78-13.63-24.63-3.55-24.86,3.12-46.35,22.74-62.59,17.02-14.09,39.81-8.06,48.01,12.51,1.84,4.6,2.89,9.52,3.68,13.51Z"/>
      <path class="cls-1" d="M134.41,71.59c.03,7.89-1.19,16.89-5.54,25.19-9.7,18.48-30.21,23.03-46.71,10.2-13.42-10.44-20.32-24.73-23.22-41.18-1.64-9.31-1.12-18.49,1.65-27.55,8.12-26.55,35.29-33.16,54.7-13.29,11.6,11.87,17.46,25.84,19.11,46.64Z"/>
      <path class="cls-1" d="M75.56,151.24c.14,11.39-1.71,19.1-6.07,26.2-6.52,10.61-19.13,14.35-32.66,9.54C12.24,178.25-5.4,141.14,3.07,116.4c7.64-22.32,29.19-24.25,45.24-13.28,17.87,12.21,25.85,30.1,27.25,48.12Z"/>
      <path class="cls-1" d="M211.2,153.65c1.44-20.29,9.48-38.06,27.05-50.24,18.35-12.71,42.4-8.75,47.24,20.09,3.77,22.48-10.76,50.95-30.84,61.3-20.84,10.74-40.55-.07-42.95-23.57-.23-2.27-.3-4.56-.49-7.58Z"/>
    </g>
  </g>
</svg>