<?xml version="1.0" encoding="UTF-8"?>
<svg id="Layer_2" data-name="Layer 2" xmlns="http://www.w3.org/2000/svg" viewBox="0 0 286.8 286.8">
  <defs>
    <style>
      .cls-1 {
        fill: #000;
      }

      .cls-1, .cls-2 {
        stroke-width: 0px;
      }

      .cls-2 {
        fill: none;
      }
    </style>
  </defs>
  <g id="Layer_13" data-name="Layer 13">
    <rect class="cls-2" width="286.8" height="286.8"/>
  </g>
  <g id="Warlock">
    <path class="cls-1" d="M58.86,230.72c0-7.04-.17-14.09.08-21.12.1-3-1.06-4.17-3.73-5.02-13.27-4.22-26.49-8.6-39.71-12.96-6.97-2.3-7.93-5.22-3.66-11.1,8.01-11.06,15.95-22.17,24.13-33.1,2.07-2.77,2.33-4.64.12-7.57-8.31-11.01-16.31-22.26-24.39-33.43-4.11-5.68-3.14-8.62,3.62-10.85,13.22-4.36,26.44-8.76,39.72-12.95,2.89-.91,3.96-2.2,3.92-5.31-.17-13.8-.09-27.6-.07-41.4.01-7.57,2.44-9.3,9.69-6.95,13.24,4.3,26.51,8.53,39.7,12.98,2.75.93,4.17.43,5.86-1.96,8.04-11.38,16.3-22.61,24.51-33.87,4.21-5.78,7.52-5.77,11.74.05,8.2,11.27,16.46,22.5,24.5,33.88,1.71,2.42,3.19,2.8,5.9,1.88,13.33-4.49,26.71-8.81,40.1-13.13,6.69-2.16,9.21-.32,9.24,6.76.05,13.66.12,27.32-.06,40.98-.04,3.45.81,5.18,4.38,6.27,13.04,3.99,25.96,8.4,38.92,12.66,7.15,2.35,8.05,5.23,3.58,11.39-8.09,11.17-16.12,22.39-24.36,33.46-1.84,2.48-1.75,4.13.05,6.55,8.4,11.3,16.61,22.73,24.86,34.14,3.75,5.18,2.73,8.37-3.42,10.42-13.35,4.43-26.7,8.86-40.11,13.09-2.92.92-3.94,2.26-3.9,5.34.16,13.8.09,27.6.06,41.4-.02,7.66-2.35,9.33-9.64,6.96-13.24-4.3-26.5-8.55-39.7-12.99-2.71-.91-4.19-.54-5.9,1.88-8.04,11.38-16.3,22.61-24.5,33.88-4.31,5.92-7.43,5.96-11.68.12-8.21-11.26-16.49-22.48-24.5-33.88-1.83-2.6-3.43-2.84-6.22-1.91-13.33,4.48-26.73,8.76-40.11,13.08-6.43,2.08-8.93.27-8.98-6.55-.05-7.04-.01-14.08-.01-21.12ZM235.67,143.62c.05-50.33-40.55-91.12-90.91-91.33-50.23-.21-91.52,40.93-91.56,91.21-.03,50.11,40.84,91.13,91,91.34,50.4.21,91.41-40.69,91.46-91.21Z"/>
  </g>
</svg>